<?xml version="1.0" standalone="no"?>
<!DOCTYPE svg PUBLIC "-//W3C//DTD SVG 20010904//EN"
 "http://www.w3.org/TR/2001/REC-SVG-20010904/DTD/svg10.dtd">
<svg version="1.0" xmlns="http://www.w3.org/2000/svg"
 width="167.000000pt" height="167.000000pt" viewBox="0 0 167.000000 167.000000"
 preserveAspectRatio="xMidYMid meet">
<metadata>
Created by potrace 1.11, written by Peter Selinger 2001-2013
</metadata>
<g transform="translate(0.000000,167.000000) scale(0.100000,-0.100000)"
fill="#000000" stroke="none">
<path d="M770 1617 c-3 -2 -27 -7 -55 -11 -269 -32 -520 -244 -609 -516 -31
-96 -38 -138 -41 -228 -2 -65 2 -97 19 -178 41 -195 165 -373 336 -483 63 -41
189 -95 245 -104 17 -3 41 -9 55 -12 41 -11 194 -13 206 -3 7 5 16 8 20 6 17
-4 114 22 174 46 192 78 354 240 428 426 26 68 52 167 44 174 -3 3 -1 6 4 6
14 0 10 183 -5 255 -49 228 -185 414 -388 528 -48 27 -178 76 -178 67 0 -1
-13 3 -29 9 -30 12 -217 27 -226 18z"/>
</g>
</svg>
