<?xml version="1.0" standalone="no"?>
<!DOCTYPE svg PUBLIC "-//W3C//DTD SVG 20010904//EN"
 "http://www.w3.org/TR/2001/REC-SVG-20010904/DTD/svg10.dtd">
<svg version="1.0" xmlns="http://www.w3.org/2000/svg"
 width="1024.000000pt" height="1024.000000pt" viewBox="0 0 1024.000000 1024.000000"
 preserveAspectRatio="xMidYMid meet">
<metadata>
Created by potrace 1.11, written by Peter Selinger 2001-2013
</metadata>
<g transform="translate(0.000000,1024.000000) scale(0.100000,-0.100000)"
fill="#000000" stroke="none">
<path d="M0 5120 l0 -5120 5120 0 5120 0 0 5120 0 5120 -5120 0 -5120 0 0
-5120z m8551 4639 c48 -34 48 -34 155 -429 46 -171 44 -284 -9 -385 -8 -17
-114 -130 -235 -252 l-220 -220 90 -89 c49 -49 132 -137 184 -195 66 -74 103
-108 122 -112 82 -15 312 -82 339 -99 40 -24 92 -87 124 -148 20 -38 24 -60
24 -140 0 -89 -2 -100 -34 -165 l-34 -69 42 -75 c82 -146 210 -418 274 -581
437 -1106 420 -2396 -45 -3498 -330 -782 -893 -1476 -1608 -1980 -343 -241
-802 -469 -1210 -600 -718 -231 -1500 -282 -2268 -146 -479 84 -991 268 -1434
516 l-77 43 -400 -399 c-220 -220 -410 -405 -423 -413 -51 -28 -123 0 -159 62
-10 17 -45 134 -79 260 -60 223 -62 233 -58 330 6 153 12 163 260 411 l210
212 -42 38 c-23 22 -47 41 -52 43 -5 2 -87 -74 -182 -168 l-173 -171 -48 0
c-43 0 -52 4 -84 38 -23 24 -41 56 -48 83 -6 24 -41 154 -78 289 -145 530
-155 570 -155 635 0 35 5 87 11 115 l11 50 -59 93 c-82 128 -138 227 -226 402
-250 501 -394 1001 -459 1590 -20 188 -17 811 5 995 96 776 328 1412 742 2035
685 1029 1779 1754 2971 1969 288 52 452 68 774 73 572 10 1014 -52 1515 -214
377 -121 803 -323 1087 -515 31 -21 61 -38 65 -38 5 0 17 22 27 49 15 42 65
96 381 411 199 199 369 366 377 371 24 15 79 9 109 -12z"/>
<path d="M8112 9378 c-336 -336 -381 -388 -394 -459 -2 -12 48 -55 157 -137
88 -66 198 -155 245 -196 l84 -76 20 20 21 20 -145 145 c-80 80 -140 145 -134
145 6 0 19 -9 29 -20 10 -11 21 -20 25 -20 4 0 60 -53 124 -117 l116 -118 77
78 76 78 -74 75 c-40 41 -69 74 -64 74 5 0 41 -32 81 -71 62 -62 72 -68 84
-54 11 13 9 20 -16 48 l-29 32 33 -30 32 -29 90 89 c72 72 93 99 111 148 39
103 32 174 -43 444 -37 133 -73 241 -83 253 -11 12 -31 20 -49 20 -27 0 -72
-42 -374 -342z"/>
<path d="M4720 9649 c-579 -50 -1104 -193 -1615 -438 -1104 -530 -1963 -1507
-2343 -2661 -107 -325 -164 -582 -209 -940 -26 -208 -25 -801 1 -1010 84 -675
285 -1274 611 -1814 52 -88 97 -162 100 -164 2 -2 20 8 40 24 l36 27 -43 46
c-24 25 -29 34 -13 20 70 -59 35 -83 371 252 167 167 304 308 304 314 0 5 -26
33 -58 63 -31 29 -48 49 -37 43 11 -5 38 -28 60 -50 21 -23 43 -41 49 -41 13
0 276 261 276 274 0 5 -8 19 -18 30 -17 21 -17 21 6 2 29 -25 41 -13 16 16
l-19 23 23 -19 c34 -29 39 -10 6 27 l-29 32 31 -27 c16 -16 34 -28 40 -28 5 0
110 101 234 225 l225 225 -165 165 c-90 90 -161 168 -157 172 4 4 82 -67 172
-157 l165 -165 77 78 78 77 -70 72 -70 71 70 -61 c38 -34 75 -62 81 -62 14 0
44 33 44 48 0 7 6 12 13 12 6 0 48 36 91 79 81 83 111 98 166 86 52 -11 83
-63 120 -197 18 -68 39 -131 46 -142 7 -10 10 -24 8 -31 -3 -6 2 -18 11 -25
14 -12 22 -1 9 13 -4 3 -8 25 -9 48 -2 23 -13 55 -24 70 -11 15 -16 29 -10 31
9 3 -44 232 -71 304 -6 16 -43 62 -83 103 l-72 74 64 -56 c35 -31 66 -55 68
-53 2 2 -12 64 -32 137 -27 98 -43 142 -63 164 -19 21 -20 24 -4 11 12 -11 22
-16 22 -12 0 4 -14 60 -31 124 -17 64 -37 140 -44 167 -7 28 -36 136 -65 240
-44 163 -75 337 -62 350 2 2 15 34 28 72 23 66 29 73 306 350 261 261 282 285
270 303 -12 19 -11 20 8 8 18 -11 38 6 242 209 243 240 264 255 317 215 24
-18 26 -26 26 -88 0 -76 -8 -93 -107 -222 -36 -49 -50 -78 -64 -138 l-18 -77
38 -151 c43 -169 55 -199 91 -222 30 -20 69 -8 107 33 55 59 132 71 167 27 12
-15 21 -39 21 -55 0 -34 -33 -122 -62 -162 l-21 -29 49 -49 49 -49 237 237
238 237 -28 31 c-26 28 -26 29 -1 7 14 -12 29 -22 34 -22 13 0 775 762 775
774 0 6 -10 21 -22 35 -22 25 -21 24 7 -1 l31 -28 249 251 c138 138 263 257
279 266 73 38 155 -25 180 -140 6 -27 61 -96 69 -87 2 3 -16 77 -40 165 -24
88 -51 186 -59 219 -8 32 -95 361 -194 731 -191 712 -202 769 -164 823 32 46
51 46 262 -9 547 -140 622 -159 645 -159 14 0 28 -4 32 -9 3 -5 20 -13 38 -16
123 -26 192 -69 246 -154 30 -46 75 -168 86 -233 15 -85 108 -405 123 -422 9
-11 11 -16 5 -12 -17 10 -16 -5 3 -53 17 -44 57 -76 81 -66 14 5 12 10 -8 32
l-24 27 29 -22 c37 -29 59 -14 30 20 l-19 23 22 -18 c23 -20 48 -14 39 10 -3
8 -2 11 4 8 5 -3 14 4 21 17 10 19 7 25 -32 59 -24 21 -41 40 -38 43 3 3 21
-10 39 -29 19 -19 37 -35 41 -35 22 0 28 167 9 215 -7 17 -14 42 -16 57 -2 15
-13 62 -24 104 -11 43 -20 101 -20 130 0 48 -3 55 -32 78 -53 39 -252 158
-398 236 -120 64 -364 180 -379 180 -3 0 13 -19 35 -42 21 -24 55 -61 74 -83
l35 -40 -50 45 c-28 25 -75 68 -105 97 -47 44 -72 58 -175 97 -377 140 -799
232 -1229 266 -149 12 -567 11 -706 -1z m780 -986 c0 -8 -9 0 -50 45 l-45 47
48 -45 c26 -24 47 -45 47 -47z m1995 16 l40 -43 -50 43 c-68 60 -73 65 -50 53
11 -6 38 -30 60 -53z m-20 -19 c21 -22 37 -40 34 -40 -3 0 -23 18 -44 40 -21
22 -37 40 -34 40 3 0 23 -18 44 -40z m-1855 -115 c30 -30 52 -55 49 -55 -2 0
-29 25 -59 55 -30 30 -52 55 -49 55 2 0 29 -25 59 -55z m2060 -51 c26 -28 19
-24 -27 16 -35 29 -63 55 -63 57 0 9 57 -37 90 -73z m-2400 31 c13 -14 21 -25
18 -25 -2 0 -15 11 -28 25 -13 14 -21 25 -18 25 2 0 15 -11 28 -25z m2380 -52
l45 -48 -50 45 c-27 25 -52 46 -54 48 -2 1 0 2 5 2 6 0 30 -21 54 -47z m-2225
-103 c33 -33 57 -60 54 -60 -2 0 -31 27 -64 60 -33 33 -57 60 -54 60 2 0 31
-27 64 -60z m365 -5 c30 -30 52 -55 49 -55 -2 0 -29 25 -59 55 -30 30 -52 55
-49 55 2 0 29 -25 59 -55z m-180 -180 c30 -30 52 -55 49 -55 -2 0 -29 25 -59
55 -30 30 -52 55 -49 55 2 0 29 -25 59 -55z m365 -7 l50 -52 -55 49 c-30 27
-57 50 -59 52 -2 2 0 3 5 3 5 0 32 -23 59 -52z m-190 -170 l50 -51 -57 48
c-32 27 -58 50 -58 52 0 13 23 -5 65 -49z m375 -14 l45 -47 -62 53 c-35 29
-63 55 -63 57 0 11 40 -21 80 -63z m-180 -180 c27 -30 21 -26 -27 15 -35 29
-63 55 -63 58 0 9 56 -36 90 -73z m370 -10 c27 -30 21 -26 -27 15 -35 29 -63
55 -63 58 0 9 56 -36 90 -73z m-185 -175 c27 -29 24 -28 -20 8 -27 22 -59 51
-70 64 -30 35 53 -32 90 -72z m-955 -14 c30 -30 52 -55 49 -55 -2 0 -29 25
-59 55 -30 30 -52 55 -49 55 2 0 29 -25 59 -55z m175 -175 c33 -33 57 -60 54
-60 -2 0 -31 27 -64 60 -33 33 -57 60 -54 60 2 0 31 -27 64 -60z m185 -185
c30 -30 52 -55 49 -55 -2 0 -29 25 -59 55 -30 30 -52 55 -49 55 2 0 29 -25 59
-55z m-365 -205 c21 -22 37 -40 34 -40 -3 0 -23 18 -44 40 -21 22 -37 40 -34
40 3 0 23 -18 44 -40z m165 -165 c30 -30 52 -55 49 -55 -2 0 -29 25 -59 55
-30 30 -52 55 -49 55 2 0 29 -25 59 -55z m-339 -112 l24 -26 -27 19 c-15 10
-28 22 -28 27 0 12 5 8 31 -20z m189 -190 c0 -11 -40 21 -80 63 l-45 47 63
-53 c34 -29 62 -55 62 -57z m-370 -180 c0 -9 -56 36 -90 73 -27 30 -21 26 28
-15 34 -29 62 -55 62 -58z m-3740 -298 c19 -19 32 -35 29 -35 -3 0 -20 16 -39
35 -19 19 -32 35 -29 35 3 0 20 -16 39 -35z m165 -167 l60 -62 -60 54 c-55 50
-73 70 -63 70 2 0 30 -28 63 -62z m1695 -43 c13 -14 21 -25 18 -25 -2 0 -15
11 -28 25 -13 14 -21 25 -18 25 2 0 15 -11 28 -25z m-1505 -146 l50 -52 -67
58 c-38 32 -68 60 -68 62 0 11 41 -22 85 -68z m175 -175 l45 -48 -62 53 c-35
29 -63 55 -63 57 0 12 39 -19 80 -62z m195 -195 c18 -19 4 -11 -33 20 -34 29
-65 58 -69 65 -11 18 69 -49 102 -85z m1070 -109 c27 -27 47 -50 44 -50 -3 0
-27 23 -54 50 -27 28 -47 50 -44 50 3 0 27 -22 54 -50z m-890 -71 c27 -29 24
-28 -20 8 -27 22 -59 51 -70 64 -30 35 53 -32 90 -72z m1060 -99 c33 -33 57
-60 54 -60 -2 0 -31 27 -64 60 -33 33 -57 60 -54 60 2 0 31 -27 64 -60z m-864
-97 c23 -29 -63 42 -101 83 -28 30 -23 28 26 -14 34 -28 67 -59 75 -69z m176
-176 c13 -21 -52 32 -92 74 -38 40 -36 40 23 -10 34 -29 65 -58 69 -64z m-203
-138 c5 -5 7 -11 5 -14 -3 -2 -32 23 -65 57 l-59 62 55 -49 c30 -26 59 -52 64
-56z m396 -56 c0 -10 -57 38 -100 83 -40 42 -36 40 28 -15 39 -35 72 -65 72
-68z m150 -19 l35 -38 -50 41 c-27 23 -61 54 -75 69 -24 27 -24 27 15 -3 22
-17 56 -48 75 -69z m-415 -64 c33 -33 57 -60 54 -60 -2 0 -31 27 -64 60 -33
33 -57 60 -54 60 2 0 31 -27 64 -60z m430 -89 c-3 -3 -36 26 -73 64 l-67 68
73 -63 c40 -35 70 -66 67 -69z m175 -37 c24 -27 24 -27 -15 3 -22 17 -56 48
-75 69 l-35 38 50 -41 c28 -23 61 -54 75 -69z m-1890 -179 c30 -30 52 -55 49
-55 -2 0 -29 25 -59 55 -30 30 -52 55 -49 55 2 0 29 -25 59 -55z m170 -170
c35 -36 62 -65 59 -65 -2 0 -34 29 -69 65 -35 36 -62 65 -59 65 2 0 34 -29 69
-65z m765 -176 c27 -29 24 -28 -20 8 -27 22 -59 51 -70 64 -30 35 53 -32 90
-72z m-580 -9 c33 -33 57 -60 54 -60 -2 0 -31 27 -64 60 -33 33 -57 60 -54 60
2 0 31 -27 64 -60z m755 -166 c25 -27 24 -27 -15 3 -22 17 -51 44 -65 59 -25
27 -24 27 15 -3 22 -17 51 -44 65 -59z m-575 -16 l60 -62 -60 53 c-53 48 -74
71 -63 71 2 0 30 -28 63 -62z m590 42 c10 -11 16 -20 13 -20 -3 0 -13 9 -23
20 -10 11 -16 20 -13 20 3 0 13 -9 23 -20z m-410 -222 l60 -61 -67 58 c-38 32
-68 60 -68 62 0 13 24 -6 75 -59z m-162 -105 c10 -21 4 -16 -58 49 l-60 62 56
-49 c31 -28 59 -56 62 -62z m137 -138 c35 -36 62 -65 59 -65 -2 0 -34 29 -69
65 -35 36 -62 65 -59 65 2 0 34 -29 69 -65z m-546 -434 c27 -27 43 -49 35 -47
-12 1 -99 83 -99 93 0 12 22 -4 64 -46z"/>
<path d="M6122 9278 c-6 -6 -12 -28 -12 -47 -1 -20 75 -319 167 -666 l167
-630 237 -237 c130 -131 240 -238 245 -238 5 0 -20 27 -56 59 -36 32 -61 63
-57 67 9 9 417 -394 417 -412 0 -6 10 -19 23 -30 l22 -19 -19 22 c-10 12 -16
29 -13 36 3 8 -7 27 -24 43 -40 39 -36 51 6 18 19 -14 35 -32 35 -40 0 -7 4
-16 10 -19 6 -4 7 1 4 12 -3 10 -34 43 -68 75 -33 31 -58 60 -53 64 4 4 18 -2
30 -14 13 -12 26 -20 29 -17 2 3 15 -6 28 -20 13 -14 27 -25 31 -25 4 0 -46
54 -112 120 -65 65 -119 125 -119 132 0 7 53 -39 117 -102 65 -63 102 -98 83
-78 -42 47 -32 63 13 20 18 -18 36 -32 39 -32 3 0 9 12 12 26 l7 27 29 -28
c17 -16 32 -26 35 -23 3 3 -1 11 -10 18 -8 7 -15 19 -15 28 0 13 3 12 20 -3
11 -10 20 -23 20 -28 0 -5 20 -32 45 -58 65 -70 58 -92 -10 -33 -30 26 -55 53
-55 58 0 6 -5 3 -11 -8 -10 -15 -3 -26 42 -72 59 -60 60 -87 1 -33 -20 18 0
-5 46 -51 45 -47 82 -92 82 -100 0 -8 -44 30 -99 84 -63 63 -100 93 -103 85
-4 -11 -10 -10 -27 5 -44 39 -19 1 49 -72 38 -43 70 -81 70 -85 0 -5 -19 6
-42 24 l-43 33 34 -37 c19 -20 30 -37 25 -37 -6 0 -15 5 -22 12 -6 6 -15 8
-19 5 -4 -4 34 -49 84 -100 53 -54 89 -98 86 -106 -3 -8 61 -80 163 -182 92
-92 165 -172 161 -176 -4 -4 -41 26 -81 66 -48 48 -75 68 -78 60 -3 -9 -59 40
-150 131 -147 148 -238 233 -170 159 40 -43 43 -70 7 -63 -28 5 -30 2 -14 -28
10 -18 9 -20 -7 -14 -11 4 91 -103 226 -238 135 -135 248 -246 253 -246 19 0
59 113 64 183 5 73 0 97 -82 391 -12 43 -31 67 -126 162 -62 62 -115 111 -119
109 -11 -7 -171 164 -168 179 2 8 -232 251 -519 540 -288 290 -523 532 -523
538 0 7 51 -38 113 -100 62 -61 117 -112 122 -112 6 0 66 -56 135 -125 69 -69
129 -125 135 -125 6 0 118 -108 250 -240 132 -132 245 -240 250 -240 13 0 85
-72 85 -85 0 -4 -7 -16 -15 -25 -13 -14 4 -34 170 -200 175 -175 183 -182 174
-143 -9 33 -39 69 -165 196 -85 86 -154 164 -154 173 0 9 -43 61 -95 115 -52
54 -95 106 -95 116 0 20 210 -194 210 -214 0 -7 9 -18 20 -25 11 -7 20 -18 20
-24 0 -7 52 -64 116 -128 105 -106 115 -114 109 -84 -13 59 -22 72 -101 154
-44 44 -61 61 -40 37 22 -23 36 -46 32 -50 -4 -4 -40 27 -79 70 -40 42 -106
113 -147 158 -45 49 -74 88 -72 98 1 10 -4 24 -13 31 -8 7 -15 22 -15 34 0 12
-13 35 -30 51 -16 16 -30 36 -30 44 0 9 68 -52 150 -134 104 -104 150 -144
150 -130 0 11 -53 73 -128 150 -145 148 -325 348 -331 367 -2 7 111 -100 250
-239 253 -252 253 -252 239 -279 -14 -25 -13 -27 40 -74 30 -27 56 -47 57 -46
5 4 -28 100 -38 112 -6 8 -15 11 -20 8 -14 -8 -23 26 -11 38 8 8 -32 53 -139
159 -111 110 -149 154 -149 172 0 18 -20 43 -67 88 -99 91 -257 259 -250 265
2 3 63 -52 135 -123 158 -156 332 -316 352 -327 8 -4 -13 19 -47 51 -61 58
-90 99 -78 111 3 3 57 -45 120 -108 63 -63 115 -108 115 -100 0 15 -74 96
-335 365 -88 91 -161 173 -163 183 -2 9 99 -84 225 -208 255 -252 328 -319
205 -187 -75 81 -94 107 -75 107 4 0 16 -8 28 -17 11 -10 -1 2 -27 27 -27 25
-48 49 -48 54 0 5 -36 47 -80 92 -130 133 -91 120 47 -16 70 -69 109 -105 85
-80 -23 25 -42 52 -42 60 0 8 49 -34 110 -95 84 -84 111 -105 115 -93 5 12
-35 58 -142 165 -219 219 -297 302 -291 309 4 3 106 -94 228 -216 l222 -223
26 26 25 26 -37 41 c-48 53 -38 66 12 17 52 -51 61 -46 16 7 l-37 45 -62 -6
c-61 -5 -62 -5 -98 31 -37 37 -50 71 -97 251 -27 102 -52 195 -85 315 l-25 95
-123 121 -122 121 -110 27 c-60 16 -184 47 -275 71 -556 145 -531 140 -548
123z"/>
<path d="M7195 8951 c49 -50 91 -91 92 -91 2 0 -8 22 -21 48 -23 46 -95 122
-115 122 -5 0 -18 3 -28 6 -10 4 22 -34 72 -85z"/>
<path d="M7710 8790 c0 -29 7 -62 42 -195 8 -31 36 -66 130 -162 87 -87 124
-119 132 -111 8 8 -10 32 -66 88 -43 43 -78 86 -78 96 0 13 27 -10 84 -71 81
-86 85 -89 102 -72 18 16 15 20 -61 97 -44 44 -76 80 -71 80 5 0 40 -28 80
-62 55 -48 46 -37 -41 51 -62 63 -113 120 -113 128 0 21 62 -29 94 -75 14 -21
52 -60 84 -87 31 -27 45 -35 30 -19 -48 52 -30 58 27 9 30 -26 55 -44 55 -39
0 5 -25 31 -55 57 -30 27 -55 43 -55 37 0 -24 -23 -3 -26 24 -3 25 -1 27 15
15 9 -8 1 1 -18 19 -42 38 -268 215 -282 220 -5 2 -9 -11 -9 -28z"/>
<path d="M7781 8493 c1 -5 24 -28 53 -53 l51 -44 -50 52 c-50 53 -56 58 -54
45z"/>
<path d="M7780 8433 c0 -28 20 -53 169 -201 140 -141 167 -172 158 -187 -10
-19 -23 -5 462 -492 l253 -255 50 49 c27 26 63 64 79 85 l29 36 -109 164 c-60
89 -151 215 -201 278 -80 101 -95 115 -121 114 -16 0 -29 4 -29 8 0 8 -60 38
-76 38 -4 0 1 -9 10 -19 10 -11 15 -25 11 -31 -4 -6 34 -53 89 -109 53 -53 93
-101 89 -105 -4 -3 -72 58 -151 136 -80 79 -142 135 -139 126 9 -26 -6 -22
-34 8 -13 14 -33 31 -44 36 -27 15 56 -82 113 -133 64 -56 186 -189 179 -195
-3 -3 -23 11 -45 31 -40 35 -40 36 -33 9 4 -14 33 -53 66 -85 78 -77 63 -88
-17 -13 -112 105 -368 371 -368 382 0 6 -10 17 -22 23 -22 12 -23 11 -5 -8 10
-11 17 -25 15 -31 -3 -10 82 -103 345 -376 82 -84 145 -156 140 -159 -5 -3
-117 102 -248 233 -131 131 -242 237 -246 235 -4 -3 -12 2 -19 10 -10 12 -9
20 3 39 16 24 15 25 -26 60 -23 19 -52 45 -64 58 -12 13 -76 79 -143 148 -116
121 -120 124 -120 93z"/>
<path d="M8143 8368 c-53 -55 -87 -110 -75 -123 7 -7 70 -35 79 -35 3 0 -1 7
-8 16 -7 9 4 5 25 -10 37 -25 55 -31 84 -27 8 1 20 -3 28 -10 8 -6 17 -9 21
-6 3 4 12 2 19 -4 8 -6 21 -9 29 -5 9 3 28 -2 43 -11 16 -10 3 9 -32 45 -32
35 -56 66 -52 69 3 4 13 -2 22 -13 14 -17 14 -16 0 11 -8 17 -30 46 -50 64
-20 19 -36 40 -36 46 0 11 -31 45 -41 45 -3 0 -28 -24 -56 -52z m87 -44 l35
-38 -52 43 c-29 24 -53 45 -53 47 0 11 38 -17 70 -52z m-5 -35 c21 -23 12 -18
-27 15 -32 27 -58 50 -58 53 0 9 55 -36 85 -68z m-25 -16 l45 -47 -50 44 c-27
24 -52 45 -54 47 -2 2 0 3 5 3 6 0 30 -21 54 -47z m141 -90 c13 -16 12 -17 -3
-4 -10 7 -18 15 -18 17 0 8 8 3 21 -13z"/>
<path d="M7780 8357 c0 -2 24 -23 53 -47 l52 -43 -45 46 c-38 41 -60 56 -60
44z"/>
<path d="M7764 8296 c-6 -20 -7 -41 -2 -49 10 -19 259 -242 269 -242 4 0 10
-3 14 -7 8 -8 35 15 35 29 0 8 -293 303 -301 303 -2 0 -9 -15 -15 -34z"/>
<path d="M7960 8313 c0 -5 13 -17 28 -27 l27 -19 -24 26 c-26 28 -31 32 -31
20z"/>
<path d="M8343 8259 c1 -22 14 -42 45 -70 23 -22 42 -43 42 -48 0 -7 51 -23
57 -17 1 1 -32 38 -72 84 -70 77 -74 80 -72 51z"/>
<path d="M7730 8217 c0 -7 59 -71 130 -142 72 -71 130 -135 130 -140 0 -6 15
-24 33 -41 l32 -29 -30 33 c-22 25 -27 37 -20 48 8 13 -16 43 -123 150 -74 74
-138 134 -143 134 -5 0 -9 -6 -9 -13z"/>
<path d="M7955 8181 c11 -13 38 -37 60 -54 29 -23 35 -25 20 -8 -11 13 -38 37
-60 54 -29 23 -35 25 -20 8z"/>
<path d="M7700 8182 c0 -13 123 -129 145 -136 11 -4 -14 27 -55 68 -70 72 -90
87 -90 68z"/>
<path d="M7716 8108 c27 -29 56 -55 64 -56 8 -2 -10 21 -40 52 -69 71 -89 74
-24 4z"/>
<path d="M8180 8124 c0 -6 15 -23 33 -40 l32 -29 -30 35 c-16 19 -31 37 -32
39 -2 2 -3 0 -3 -5z"/>
<path d="M8225 8110 c10 -11 20 -20 23 -20 3 0 -3 9 -13 20 -10 11 -20 20 -23
20 -3 0 3 -9 13 -20z"/>
<path d="M8405 8060 c10 -11 20 -20 23 -20 3 0 -3 9 -13 20 -10 11 -20 20 -23
20 -3 0 3 -9 13 -20z"/>
<path d="M8315 8011 c11 -13 43 -42 70 -64 28 -23 41 -31 30 -18 -11 13 -42
42 -70 64 -27 23 -41 31 -30 18z"/>
<path d="M8680 8005 c0 -3 24 -36 53 -73 72 -91 163 -219 231 -325 31 -48 61
-85 66 -82 9 6 37 88 40 120 7 72 1 114 -24 167 -45 95 -112 140 -241 162 -46
8 -101 23 -114 30 -6 4 -11 4 -11 1z"/>
<path d="M7776 7993 c-3 -4 15 -29 41 -57 l48 -49 -56 46 -56 47 -21 -23 c-12
-13 -22 -31 -22 -40 0 -9 -4 -17 -9 -17 -4 0 -11 -17 -14 -37 -6 -35 -3 -42
42 -88 28 -29 46 -56 43 -64 -3 -8 15 -32 44 -59 27 -24 40 -38 29 -31 -34 22
-85 72 -85 84 0 6 -21 31 -46 55 -26 25 -44 37 -41 28 4 -10 2 -18 -3 -18 -18
0 -10 -20 24 -58 25 -27 32 -42 26 -52 -7 -11 28 -53 146 -171 86 -86 152
-159 147 -162 -15 -9 -317 299 -310 316 5 13 -20 47 -35 47 -3 0 2 -25 10 -56
14 -49 25 -65 94 -128 43 -40 78 -77 78 -82 0 -5 -34 25 -76 66 -58 57 -75 69
-70 50 4 -14 11 -38 16 -55 4 -17 39 -62 79 -102 39 -39 71 -78 71 -85 0 -7
-27 14 -60 47 -33 32 -62 57 -64 54 -12 -12 46 -175 71 -203 19 -20 20 -24 6
-12 -33 28 -30 0 5 -38 18 -20 19 -24 5 -12 -13 11 -23 15 -23 10 0 -9 19 -79
60 -224 40 -139 90 -353 90 -383 -1 -63 -30 -173 -61 -221 l-30 -49 58 -61 58
-61 -63 60 -62 60 -62 -63 -62 -62 39 -42 40 -41 -40 31 c-45 36 -57 39 -75
16 -11 -13 -5 -24 46 -77 l59 -62 -63 60 -62 60 -237 -237 c-215 -215 -235
-238 -222 -254 13 -16 12 -17 -5 -7 -14 8 -26 7 -45 -3 -76 -40 -156 12 -186
121 -9 33 -25 85 -36 116 -10 31 -19 64 -19 74 0 42 -35 126 -63 152 -19 18
-28 22 -24 11 3 -9 9 -33 13 -54 4 -20 13 -49 20 -63 8 -14 14 -34 14 -44 0
-10 19 -89 41 -175 47 -178 49 -239 10 -347 l-21 -60 62 -58 c56 -52 57 -54
12 -18 -28 22 -57 47 -64 56 -12 14 -15 13 -33 -7 -11 -13 -54 -58 -95 -100
l-76 -77 65 -62 64 -61 -68 57 -69 58 -146 -146 -147 -147 115 -117 c111 -113
85 -97 -61 37 l-70 64 -489 -489 -490 -490 43 -44 42 -45 -43 37 c-23 20 -45
37 -49 37 -4 0 -45 -37 -90 -82 l-83 -82 38 -40 37 -40 -38 32 c-21 18 -41 32
-45 32 -4 0 -39 -32 -77 -71 -114 -116 -160 -149 -208 -149 -32 0 -48 7 -73
31 l-33 31 11 -43 c6 -24 15 -48 19 -54 5 -5 9 -18 9 -30 0 -11 72 -290 161
-620 89 -330 167 -623 174 -651 7 -28 18 -61 25 -73 6 -13 14 -68 17 -122 l6
-98 -31 -30 c-23 -24 -40 -31 -69 -31 l-38 -1 48 -44 c26 -24 47 -47 47 -51 0
-5 -26 17 -57 48 -61 61 -66 63 -268 116 -188 50 -392 104 -559 147 -98 25
-191 52 -206 60 -35 18 -104 94 -128 142 -11 21 -32 77 -46 125 -22 71 -33 91
-60 112 l-34 26 -21 -68 c-11 -38 -35 -88 -52 -112 -28 -38 -30 -46 -19 -64
12 -19 12 -20 -4 -7 -25 20 -32 5 -10 -21 19 -23 19 -23 -2 -5 -11 9 -25 17
-30 17 -5 0 -68 -58 -139 -130 l-129 -130 29 -31 c25 -26 26 -30 8 -20 -12 6
-26 19 -31 27 -8 14 -26 0 -108 -79 l-99 -96 70 -73 70 -73 -72 70 -73 69
-227 -227 -228 -226 55 -57 c47 -48 81 -69 235 -144 448 -219 906 -357 1395
-419 1310 -168 2610 226 3592 1088 707 621 1200 1429 1423 2333 204 833 173
1701 -91 2511 -68 206 -84 239 -166 325 -70 74 -63 75 15 3 20 -19 37 -30 37
-25 0 31 -232 510 -276 569 -14 18 -18 16 -89 -55 -41 -41 -75 -78 -75 -83 0
-5 21 -29 48 -54 l47 -45 -43 34 c-24 18 -50 37 -58 43 -11 8 -48 -25 -164
-140 -82 -82 -150 -154 -150 -159 0 -5 8 -19 18 -30 17 -21 17 -21 -4 -3 -11
9 -25 17 -31 17 -5 0 -38 -30 -73 -66 -90 -93 -120 -114 -164 -114 -27 0 -45
8 -72 33 -31 28 -40 48 -71 157 -19 69 -42 134 -51 144 -11 13 -12 17 -3 11
11 -6 13 -4 7 11 -5 10 -17 55 -27 99 -11 44 -24 88 -30 99 -6 10 -12 37 -15
59 -3 34 -14 52 -61 101 -32 34 -42 47 -23 30 84 -73 94 -69 23 9 -26 29 -33
39 -15 23 59 -54 50 -5 -12 64 l-31 35 33 -29 c34 -32 41 -23 18 22 -16 30
-106 121 -106 108 0 -5 -9 -1 -19 8 -16 14 -17 22 -9 35 9 14 1 27 -43 70
l-54 53 58 -48 c31 -26 57 -55 57 -64 0 -9 23 -38 50 -65 33 -33 50 -44 50
-33 0 9 -4 19 -10 23 -5 3 -7 12 -4 19 3 8 -2 28 -10 45 -9 16 -16 39 -16 51
0 12 -4 19 -9 16 -5 -3 -9 9 -9 27 0 47 -17 83 -54 117 -35 31 -41 34 -52 23z
m55 -156 c15 -8 29 -27 31 -42 3 -14 5 -24 4 -23 -1 2 -27 30 -56 63 -30 33
-44 51 -30 39 14 -11 37 -28 51 -37z m-31 -101 c0 -6 15 -26 33 -46 17 -20 14
-17 -8 6 -63 66 -98 117 -52 75 15 -14 27 -29 27 -35z m28 -131 c14 -14 23
-25 19 -25 -11 0 -107 91 -107 101 0 4 14 -6 30 -21 17 -16 43 -41 58 -55z
m-3 -206 c38 -40 36 -40 -23 10 -34 29 -65 58 -69 64 -13 21 52 -32 92 -74z
m198 -146 c4 -7 5 -13 4 -13 -1 0 -34 32 -72 72 l-70 72 66 -59 c37 -33 69
-66 72 -72z m-13 -39 c16 -18 7 -13 -26 14 -28 23 -57 49 -65 59 -21 26 62
-40 91 -73z m-10 -30 c16 -18 7 -13 -26 14 -28 23 -57 49 -65 59 -21 26 62
-40 91 -73z m1120 -191 c0 -10 -39 20 -75 58 l-40 43 58 -48 c31 -27 57 -50
57 -53z m-1159 20 l34 -36 -42 33 c-24 18 -43 35 -43 37 0 12 21 -2 51 -34z
m-1 -208 c30 -30 52 -55 49 -55 -2 0 -29 25 -59 55 -30 30 -52 55 -49 55 2 0
29 -25 59 -55z m740 -40 c30 -30 52 -55 49 -55 -2 0 -29 25 -59 55 -30 30 -52
55 -49 55 2 0 29 -25 59 -55z m-555 -145 c27 -27 47 -50 44 -50 -3 0 -27 23
-54 50 -27 28 -47 50 -44 50 3 0 27 -22 54 -50z m735 -35 c30 -30 52 -55 49
-55 -2 0 -29 25 -59 55 -30 30 -52 55 -49 55 2 0 29 -25 59 -55z m-555 -147
l50 -51 -57 48 c-32 27 -58 50 -58 52 0 13 23 -5 65 -49z m195 -194 c26 -28
19 -24 -27 16 -35 29 -63 55 -63 57 0 9 57 -37 90 -73z m180 -180 c27 -30 21
-26 -27 15 -35 29 -63 55 -63 58 0 9 56 -36 90 -73z m-590 -39 c30 -30 52 -55
49 -55 -2 0 -29 25 -59 55 -30 30 -52 55 -49 55 2 0 29 -25 59 -55z m-140
-121 c17 -19 8 -14 -25 13 -27 23 -61 54 -75 69 -17 19 -8 14 25 -13 28 -23
61 -54 75 -69z m910 -20 c25 -27 24 -27 -15 3 -22 17 -51 44 -65 59 -25 27
-24 27 15 -3 22 -17 51 -44 65 -59z m-955 -34 c33 -33 57 -60 54 -60 -2 0 -31
27 -64 60 -33 33 -57 60 -54 60 2 0 31 -27 64 -60z m370 -10 c33 -33 57 -60
54 -60 -2 0 -31 27 -64 60 -33 33 -57 60 -54 60 2 0 31 -27 64 -60z m-175 -91
c0 -14 -3 -12 -50 38 l-45 46 48 -38 c26 -20 47 -41 47 -46z m951 -56 c25 -31
-43 22 -81 63 l-35 38 51 -42 c28 -23 57 -49 65 -59z m-966 -23 c33 -33 57
-60 54 -60 -2 0 -31 27 -64 60 -33 33 -57 60 -54 60 2 0 31 -27 64 -60z m370
-10 c33 -33 57 -60 54 -60 -2 0 -31 27 -64 60 -33 33 -57 60 -54 60 2 0 31
-27 64 -60z m785 -157 c0 -9 -56 36 -90 73 -27 30 -21 26 28 -15 34 -29 62
-55 62 -58z m-975 -13 c33 -33 57 -60 54 -60 -2 0 -31 27 -64 60 -33 33 -57
60 -54 60 2 0 31 -27 64 -60z m370 -10 c33 -33 57 -60 54 -60 -2 0 -31 27 -64
60 -33 33 -57 60 -54 60 2 0 31 -27 64 -60z m-1261 -69 c-2 -3 -30 21 -62 54
l-57 58 62 -53 c34 -30 60 -56 57 -59z m1076 -106 c30 -30 52 -55 49 -55 -2 0
-29 25 -59 55 -30 30 -52 55 -49 55 2 0 29 -25 59 -55z m365 -7 l50 -52 -51
44 c-44 38 -63 60 -51 60 1 0 25 -23 52 -52z m-1266 -55 c2 -2 2 -5 0 -8 -3
-2 -30 21 -60 53 l-54 57 55 -50 c30 -28 57 -51 59 -52z m-548 -60 c8 -10 -9
1 -37 24 -28 23 -57 50 -65 60 -8 10 9 -1 37 -24 28 -23 57 -50 65 -60z m1629
-60 l55 -57 -55 49 c-30 26 -59 52 -64 57 -6 5 -6 8 0 8 5 0 34 -26 64 -57z
m-945 -23 c33 -33 57 -60 54 -60 -2 0 -31 27 -64 60 -33 33 -57 60 -54 60 2 0
31 -27 64 -60z m-510 -91 c27 -29 24 -28 -20 8 -27 22 -59 51 -70 64 -30 35
53 -32 90 -72z m1635 -65 l45 -47 -62 53 c-35 29 -63 55 -63 57 0 11 40 -21
80 -63z m-945 -24 c33 -33 57 -60 54 -60 -2 0 -31 27 -64 60 -33 33 -57 60
-54 60 2 0 31 -27 64 -60z m-880 -81 c30 -35 -53 32 -90 72 -27 29 -24 28 20
-8 28 -22 59 -51 70 -64z m370 -10 c30 -35 -53 32 -90 72 -27 29 -24 28 20 -8
28 -22 59 -51 70 -64z m1645 -75 c27 -30 21 -26 -27 15 -35 29 -63 55 -63 58
0 9 56 -36 90 -73z m-984 14 l29 -33 -32 29 c-31 28 -38 36 -30 36 2 0 16 -15
33 -32z m-469 -131 c13 -21 -52 32 -92 74 -38 40 -36 40 23 -10 34 -29 65 -58
69 -64z m1638 -68 c27 -29 24 -28 -20 8 -27 22 -59 51 -70 64 -30 35 53 -32
90 -72z m-2459 -80 c19 -22 19 -22 -3 -10 -24 12 -39 31 -25 31 5 0 17 -10 28
-21z m2649 -110 c11 -13 -2 -5 -30 18 -27 22 -59 51 -70 64 -11 13 3 5 30 -18
28 -22 59 -51 70 -64z m135 -141 c0 -13 -5 -10 -41 29 l-34 36 37 -29 c21 -16
38 -32 38 -36z m-3460 -76 c0 -10 -41 23 -80 64 l-45 47 63 -54 c34 -29 62
-55 62 -57z m-210 -139 c0 -8 -9 0 -50 45 l-45 47 48 -45 c26 -24 47 -45 47
-47z m330 12 c30 -30 52 -55 49 -55 -2 0 -29 25 -59 55 -30 30 -52 55 -49 55
2 0 29 -25 59 -55z m-320 -52 c0 -10 -40 21 -75 58 l-40 42 58 -48 c31 -27 57
-50 57 -52z m110 -78 c13 -14 21 -25 18 -25 -2 0 -15 11 -28 25 -13 14 -21 25
-18 25 2 0 15 -11 28 -25z m385 -45 c33 -33 57 -60 54 -60 -2 0 -31 27 -64 60
-33 33 -57 60 -54 60 2 0 31 -27 64 -60z m-380 0 c21 -22 37 -40 34 -40 -3 0
-23 18 -44 40 -21 22 -37 40 -34 40 3 0 23 -18 44 -40z m560 -180 c33 -33 57
-60 54 -60 -2 0 -31 27 -64 60 -33 33 -57 60 -54 60 2 0 31 -27 64 -60z m-890
-91 c38 -40 36 -40 -23 10 -34 29 -65 58 -69 64 -13 21 52 -32 92 -74z m1070
-89 c33 -33 57 -60 54 -60 -2 0 -31 27 -64 60 -33 33 -57 60 -54 60 2 0 31
-27 64 -60z m-1250 -91 c30 -35 -53 32 -90 72 -27 29 -24 28 20 -8 28 -22 59
-51 70 -64z m365 -5 c25 -27 24 -27 -15 3 -22 17 -51 44 -65 59 -25 27 -24 27
15 -3 22 -17 51 -44 65 -59z m1031 -51 c13 -16 12 -17 -3 -4 -10 7 -18 15 -18
17 0 8 8 3 21 -13z m-1216 -124 c30 -35 -53 32 -90 72 -27 29 -24 28 20 -8 28
-22 59 -51 70 -64z m382 -23 c11 -18 -69 49 -102 85 -18 19 -4 11 33 -20 34
-29 65 -58 69 -65z m-190 -169 c13 -21 -52 32 -92 74 -38 40 -36 40 23 -10 34
-29 65 -58 69 -64z m173 -174 c0 -11 -40 21 -80 63 l-45 47 63 -53 c34 -29 62
-55 62 -57z m174 -182 c-3 -3 -33 24 -67 59 l-62 63 67 -59 c37 -32 65 -60 62
-63z m121 -121 c33 -33 57 -60 54 -60 -2 0 -31 27 -64 60 -33 33 -57 60 -54
60 2 0 31 -27 64 -60z m-2380 -571 c38 -40 36 -40 -23 10 -34 29 -65 58 -69
64 -13 21 52 -32 92 -74z m-5 -35 c26 -28 19 -24 -27 16 -35 29 -63 55 -63 57
0 9 57 -37 90 -73z m1483 -141 c10 -21 4 -16 -58 49 l-60 62 56 -49 c31 -28
59 -56 62 -62z m-1293 -9 c16 -18 7 -13 -26 14 -28 23 -57 49 -65 59 -21 26
62 -40 91 -73z m-10 -30 c16 -18 7 -13 -26 14 -28 23 -57 49 -65 59 -21 26 62
-40 91 -73z m1440 -99 c35 -36 62 -65 59 -65 -2 0 -34 29 -69 65 -35 36 -62
65 -59 65 2 0 34 -29 69 -65z m-1265 -76 c38 -40 36 -40 -23 10 -34 29 -65 58
-69 64 -13 21 52 -32 92 -74z m1070 -109 c33 -33 57 -60 54 -60 -2 0 -31 27
-64 60 -33 33 -57 60 -54 60 2 0 31 -27 64 -60z m380 0 c33 -33 57 -60 54 -60
-2 0 -31 27 -64 60 -33 33 -57 60 -54 60 2 0 31 -27 64 -60z m-1260 -81 c27
-29 24 -28 -20 8 -27 22 -59 51 -70 64 -30 35 53 -32 90 -72z m-955 6 c35 -36
62 -65 59 -65 -2 0 -34 29 -69 65 -35 36 -62 65 -59 65 2 0 34 -29 69 -65z
m2015 -105 c33 -33 57 -60 54 -60 -2 0 -31 27 -64 60 -33 33 -57 60 -54 60 2
0 31 -27 64 -60z m-900 -61 c16 -24 -15 -5 -50 33 l-40 42 42 -33 c24 -18 45
-37 48 -42z m-930 -21 l60 -62 -60 53 c-53 48 -74 71 -63 71 2 0 30 -28 63
-62z m130 -129 c11 -17 -1 -21 -15 -4 -8 9 -8 15 -2 15 6 0 14 -5 17 -11z"/>
<path d="M8300 7987 c0 -3 28 -29 63 -58 34 -29 51 -41 37 -25 -27 30 -100 91
-100 83z"/>
<path d="M8036 7971 c-3 -5 127 -143 289 -307 162 -164 295 -302 295 -306 0
-4 -3 -8 -6 -8 -3 0 -106 100 -228 223 -123 122 -234 231 -248 242 -13 11 -1
-3 29 -30 29 -28 53 -57 53 -65 0 -8 -15 0 -37 21 -90 83 -69 55 30 -41 59
-58 107 -112 107 -120 0 -8 -76 62 -170 155 -93 93 -170 175 -170 181 0 6 -8
18 -17 25 -16 13 -17 12 -5 -3 8 -10 12 -23 9 -30 -3 -7 62 -80 146 -165 83
-84 148 -155 144 -159 -4 -4 -20 5 -35 19 -16 15 -32 27 -37 27 -5 0 -58 48
-117 107 -60 59 -108 103 -108 97 0 -5 142 -153 315 -329 173 -176 314 -324
312 -329 -2 -5 -139 127 -306 293 -228 227 -302 296 -297 274 5 -17 55 -76
134 -155 69 -70 123 -131 119 -135 -4 -4 -58 42 -119 103 -61 60 -108 101
-104 91 3 -10 6 -27 6 -37 0 -9 39 -59 86 -109 48 -50 85 -94 82 -96 -2 -2
-27 16 -55 40 -28 25 -56 45 -62 45 -6 0 -11 5 -11 12 0 6 -3 9 -6 5 -3 -3 1
-29 10 -59 14 -49 32 -69 226 -263 l210 -210 150 150 c82 82 150 154 150 159
0 5 -61 69 -135 143 -74 75 -135 131 -135 127 0 -5 -79 70 -175 166 -96 96
-175 171 -175 165 0 -5 -19 9 -42 30 -39 36 -80 65 -92 65 -3 0 -7 -4 -10 -9z"/>
<path d="M7570 7947 c0 -2 15 -16 33 -33 l32 -29 -29 33 c-28 30 -36 37 -36
29z"/>
<path d="M7580 7875 c13 -14 26 -25 28 -25 3 0 -5 11 -18 25 -13 14 -26 25
-28 25 -3 0 5 -11 18 -25z"/>
<path d="M6460 7877 c0 -2 11 -41 25 -87 14 -46 25 -92 25 -102 0 -10 41 -63
91 -118 92 -102 155 -156 143 -126 -3 9 -4 16 -1 16 3 0 93 -87 199 -194 l193
-194 22 28 22 27 -224 227 c-124 125 -225 234 -225 242 0 14 2 15 18 3 9 -8
-49 52 -130 134 -130 131 -158 156 -158 144z"/>
<path d="M7380 7827 c0 -2 28 -28 63 -57 l62 -53 -45 47 c-40 42 -80 74 -80
63z"/>
<path d="M7570 7695 c19 -19 36 -35 39 -35 3 0 -10 16 -29 35 -19 19 -36 35
-39 35 -3 0 10 -16 29 -35z"/>
<path d="M7579 7626 c14 -14 29 -26 34 -26 13 0 -12 29 -37 42 -19 10 -18 8 3
-16z"/>
<path d="M7370 7628 c0 -2 26 -26 58 -53 36 -31 46 -37 27 -16 -28 31 -85 77
-85 69z"/>
<path d="M6540 7592 c1 -11 15 -66 49 -192 l32 -115 76 -77 c47 -47 81 -74 90
-71 9 3 33 -12 59 -38 24 -24 44 -39 44 -34 0 5 -28 38 -62 72 -34 34 -59 66
-55 69 13 13 246 -217 247 -243 0 -7 20 -28 43 -48 62 -52 211 -215 203 -223
-8 -8 -256 238 -256 254 0 6 -8 18 -17 25 -15 11 -16 11 -5 -1 6 -8 12 -21 12
-30 0 -9 11 -27 25 -40 33 -31 35 -62 3 -34 -28 23 278 -290 507 -519 l168
-168 54 53 c29 29 53 57 53 63 0 11 -370 389 -445 454 l-40 35 34 -37 c19 -20
31 -40 28 -44 -4 -4 -47 34 -95 83 -48 49 -96 96 -107 103 -11 8 -1 -3 23 -23
23 -21 42 -45 42 -53 0 -10 -17 0 -47 28 -30 28 -48 38 -51 30 -5 -14 -112 85
-112 103 0 5 -48 59 -107 118 -58 60 -103 111 -99 115 3 4 21 -7 39 -23 23
-21 21 -17 -7 13 -49 52 -40 70 11 22 l37 -34 -28 34 c-33 41 -26 53 11 20 26
-23 -32 37 -260 263 -53 53 -97 94 -97 90z"/>
<path d="M7425 7540 c21 -22 41 -40 44 -40 3 0 -13 18 -34 40 -21 22 -41 40
-44 40 -3 0 13 -18 34 -40z"/>
<path d="M6296 7537 c-16 -12 -12 -19 53 -76 76 -67 98 -71 31 -6 -44 43 -55
74 -19 55 20 -11 20 -11 4 14 -19 29 -42 33 -69 13z"/>
<path d="M6825 7511 c33 -36 113 -103 102 -85 -4 7 -35 36 -69 65 -37 31 -51
39 -33 20z"/>
<path d="M6032 7277 l-231 -232 57 -60 c31 -34 67 -69 79 -79 21 -17 21 -17
16 2 -3 11 80 -65 184 -169 103 -104 191 -189 196 -189 27 0 -7 49 -93 135
-55 55 -100 106 -100 115 0 8 47 -32 105 -90 100 -100 105 -103 120 -85 8 11
14 28 12 37 -1 9 -76 92 -166 183 -90 91 -161 169 -157 172 3 4 23 -9 44 -28
20 -19 46 -41 57 -49 11 -7 -4 10 -34 38 -30 29 -51 55 -48 58 7 7 104 -81
176 -158 24 -27 48 -48 54 -48 6 0 35 -23 64 -52 29 -29 53 -47 53 -40 0 8 5
10 13 6 6 -5 -28 36 -77 89 -49 53 -92 97 -95 97 -12 0 -194 200 -188 206 3 3
92 -80 198 -186 218 -218 210 -215 239 -91 l17 70 -83 82 c-48 47 -86 94 -89
109 -3 15 -19 40 -35 55 -17 16 -30 36 -30 44 0 9 53 -38 119 -103 l118 -118
-23 89 c-13 48 -33 124 -45 168 -19 74 -26 86 -91 158 -39 43 -78 82 -87 87
-14 7 -60 -34 -249 -223z"/>
<path d="M7553 7463 c4 -6 31 -31 60 -54 28 -24 43 -33 32 -20 -24 28 -102 91
-92 74z"/>
<path d="M7555 7423 c6 -6 33 -30 60 -54 l50 -43 -40 43 c-22 23 -49 47 -60
53 -11 6 -15 6 -10 1z"/>
<path d="M6490 7380 c0 -8 12 -28 28 -44 18 -20 19 -24 5 -12 -20 17 -23 17
-23 3 0 -18 55 -85 64 -77 10 11 -26 99 -50 121 -16 15 -24 18 -24 9z"/>
<path d="M7025 7351 c22 -23 49 -47 60 -53 23 -12 18 -7 -50 53 l-50 43 40
-43z"/>
<path d="M6830 7336 c34 -37 90 -82 90 -73 0 3 -28 29 -62 58 -49 41 -55 45
-28 15z"/>
<path d="M7015 7321 c30 -32 85 -77 85 -68 0 3 -26 26 -57 53 -40 33 -49 38
-28 15z"/>
<path d="M8096 7325 c14 -62 27 -80 124 -182 55 -58 100 -110 100 -115 0 -15
-33 13 -118 101 -64 68 -71 73 -66 46 4 -16 13 -38 21 -47 8 -9 12 -25 9 -35
-5 -15 19 -45 96 -126 55 -59 106 -107 112 -107 7 0 34 23 61 50 l50 50 -198
198 c-160 159 -197 191 -191 167z"/>
<path d="M6520 7264 c0 -5 8 -20 17 -33 9 -14 12 -21 6 -18 -11 7 1 -57 27
-143 5 -19 10 -58 10 -85 0 -47 3 -54 45 -95 26 -25 45 -38 45 -30 0 15 -56
226 -84 316 -14 44 -66 114 -66 88z"/>
<path d="M6675 7190 c21 -22 41 -40 44 -40 3 0 -13 18 -34 40 -21 22 -41 40
-44 40 -3 0 13 -18 34 -40z"/>
<path d="M7193 7184 c9 -11 17 -25 17 -31 0 -5 10 -18 23 -29 22 -19 22 -19 5
2 -10 11 -18 25 -18 31 0 5 -10 18 -22 29 -23 19 -23 19 -5 -2z"/>
<path d="M6680 7145 c19 -19 36 -35 39 -35 3 0 -10 16 -29 35 -19 19 -36 35
-39 35 -3 0 10 -16 29 -35z"/>
<path d="M7020 7146 c19 -21 44 -42 55 -48 23 -12 17 -5 -45 48 l-45 38 35
-38z"/>
<path d="M7186 7141 c8 -16 34 -44 57 -61 l42 -32 -42 39 c-24 21 -43 43 -43
50 0 6 -7 16 -15 23 -12 10 -12 8 1 -19z"/>
<path d="M6999 7127 c16 -20 91 -81 91 -74 0 3 -24 25 -52 48 -29 24 -47 36
-39 26z"/>
<path d="M6676 7098 c3 -7 20 -24 37 -37 l32 -25 -34 37 c-38 40 -43 44 -35
25z"/>
<path d="M6805 7093 c6 -5 33 -30 60 -54 37 -32 42 -35 20 -10 -16 18 -43 42
-60 54 -16 11 -25 16 -20 10z"/>
<path d="M7028 7063 c23 -21 42 -43 42 -50 0 -6 4 -15 10 -18 14 -9 0 26 -19
49 -9 10 -29 27 -46 38 -20 13 -15 7 13 -19z"/>
<path d="M7210 7072 c0 -5 15 -19 33 -32 l32 -23 -29 31 c-31 34 -36 37 -36
24z"/>
<path d="M6690 7030 c0 -15 31 -54 91 -116 52 -52 89 -98 86 -106 -3 -7 41
-59 101 -120 58 -59 103 -111 99 -115 -4 -4 -41 26 -81 66 -53 53 -75 69 -79
58 -4 -10 29 -50 94 -117 87 -90 111 -120 94 -120 -3 0 -66 61 -140 135 -74
74 -138 135 -141 135 -3 0 11 -16 32 -35 20 -19 34 -38 31 -41 -8 -8 -79 53
-89 75 -4 11 -7 6 -7 -14 -1 -25 12 -43 64 -95 36 -35 65 -69 65 -75 0 -6 23
-33 50 -60 28 -27 50 -54 50 -59 0 -6 53 -63 117 -128 64 -65 114 -120 110
-124 -4 -4 -74 59 -155 139 -104 103 -151 144 -158 137 -8 -8 -21 0 -44 27
-33 38 -60 59 -60 48 0 -3 21 -28 47 -56 48 -51 53 -81 7 -38 l-27 24 7 -30
c4 -16 32 -55 62 -85 30 -31 54 -60 54 -65 0 -6 92 -102 205 -215 l205 -205
125 125 c69 69 124 131 123 138 -4 16 -720 733 -727 727 -2 -3 5 -15 17 -28
12 -13 22 -27 22 -32 0 -5 32 -42 71 -82 40 -41 69 -76 66 -80 -7 -6 -116 92
-167 151 -17 18 -30 42 -30 53 0 10 -36 54 -80 98 -44 44 -80 85 -80 91 0 6
-7 17 -15 24 -13 10 -15 9 -15 -10z"/>
<path d="M6850 7015 c19 -19 36 -35 39 -35 3 0 -10 16 -29 35 -19 19 -36 35
-39 35 -3 0 10 -16 29 -35z"/>
<path d="M7028 7029 c12 -14 22 -30 22 -36 0 -6 7 -16 15 -23 13 -11 13 -8 0
17 -8 17 -25 38 -37 49 l-23 19 23 -26z"/>
<path d="M5650 6895 l-135 -135 225 -225 c124 -124 229 -225 235 -225 19 0
190 -180 190 -199 0 -19 695 -731 713 -731 17 0 35 118 29 183 -4 34 -17 100
-31 147 -13 47 -36 127 -50 179 -30 107 -28 105 -268 342 -71 69 -128 131
-128 137 0 26 -15 17 -16 -9 -1 -25 12 -42 77 -103 61 -57 77 -77 73 -93 -3
-11 -1 -24 5 -27 6 -4 11 -15 11 -24 0 -11 -9 -7 -34 17 -23 23 -35 29 -38 19
-3 -8 -34 16 -85 65 -53 52 -83 74 -88 67 -5 -8 33 -53 100 -120 64 -64 105
-112 100 -119 -4 -7 25 -44 71 -91 84 -87 95 -118 17 -49 -36 32 -32 26 16
-24 36 -36 62 -70 58 -73 -9 -9 -422 396 -422 413 0 7 -38 51 -84 97 -53 53
-82 90 -78 99 3 9 -26 45 -79 98 -46 46 -84 90 -84 99 0 8 46 -31 103 -88 93
-93 127 -118 127 -93 0 5 -30 41 -66 80 -37 40 -64 74 -62 76 3 3 43 -31 90
-75 47 -43 88 -76 92 -73 3 4 16 -3 29 -14 35 -32 48 -37 40 -16 -6 16 -5 17
13 3 10 -8 29 -26 41 -40 11 -14 24 -22 27 -19 6 6 -42 77 -83 121 -32 36 -19
49 17 18 15 -14 -99 103 -253 258 -154 155 -280 282 -280 282 0 0 -61 -61
-135 -135z m238 -417 c34 -33 48 -42 37 -25 -26 41 -5 33 44 -17 27 -27 49
-42 58 -39 10 4 50 -29 114 -93 55 -54 97 -91 93 -81 -5 13 -2 16 10 11 9 -3
16 -11 16 -18 0 -6 23 -34 50 -61 31 -31 48 -55 45 -64 -4 -9 24 -45 76 -97
50 -50 79 -86 74 -94 -4 -7 25 -44 75 -96 46 -46 80 -87 77 -91 -7 -6 -74 55
-189 173 -47 48 -70 65 -76 57 -5 -9 -32 12 -87 67 -43 43 -82 77 -85 75 -11
-7 -43 33 -35 44 3 6 -76 95 -177 197 -101 102 -184 190 -186 195 -8 21 16 6
66 -43z"/>
<path d="M6090 6315 c19 -19 36 -35 39 -35 3 0 -10 16 -29 35 -19 19 -36 35
-39 35 -3 0 10 -16 29 -35z"/>
<path d="M6080 6285 c19 -19 36 -35 39 -35 3 0 -10 16 -29 35 -19 19 -36 35
-39 35 -3 0 10 -16 29 -35z"/>
<path d="M6240 6194 c0 -6 17 -26 38 -45 l37 -34 -35 40 c-19 22 -36 42 -37
44 -2 2 -3 0 -3 -5z"/>
<path d="M6240 6147 c0 -2 15 -16 33 -33 l32 -29 -29 33 c-28 30 -36 37 -36
29z"/>
<path d="M6255 6090 c21 -22 41 -40 44 -40 3 0 -13 18 -34 40 -21 22 -41 40
-44 40 -3 0 13 -18 34 -40z"/>
<path d="M6450 5935 c19 -19 36 -35 39 -35 3 0 -10 16 -29 35 -19 19 -36 35
-39 35 -3 0 10 -16 29 -35z"/>
<path d="M6840 6988 c41 -45 50 -53 50 -45 0 2 -21 23 -47 47 l-48 45 45 -47z"/>
<path d="M7210 6978 c24 -27 45 -48 47 -48 8 0 0 9 -44 50 l-48 45 45 -47z"/>
<path d="M8195 7000 c10 -11 20 -20 23 -20 3 0 -3 9 -13 20 -10 11 -20 20 -23
20 -3 0 3 -9 13 -20z"/>
<path d="M7402 6954 c26 -26 50 -46 52 -43 3 3 -18 24 -47 48 l-52 44 47 -49z"/>
<path d="M6820 6946 c41 -43 80 -74 80 -62 0 2 -28 28 -62 57 l-63 53 45 -48z"/>
<path d="M7190 6956 c14 -15 39 -37 55 -49 36 -24 26 -14 -35 39 -30 25 -37
29 -20 10z"/>
<path d="M7375 6941 c30 -32 85 -77 85 -68 0 3 -26 26 -57 53 -40 33 -49 38
-28 15z"/>
<path d="M8200 6949 c0 -40 32 -119 56 -138 l27 -21 38 22 c22 12 39 25 39 29
0 3 -25 28 -55 54 -43 36 -55 43 -55 28 -1 -14 -6 -12 -25 12 -17 20 -25 25
-25 14z"/>
<path d="M4114 6921 c-21 -16 -122 -113 -224 -215 l-185 -186 175 -175 c96
-96 176 -173 177 -171 2 2 -10 56 -27 122 -51 202 -35 312 66 435 61 75 97
147 92 187 -4 37 -27 38 -74 3z"/>
<path d="M6711 6943 c2 -7 32 -44 67 -82 34 -38 62 -74 62 -79 0 -5 8 -16 18
-23 14 -11 15 -11 5 1 -7 8 -13 23 -13 35 0 12 -28 48 -71 90 -39 39 -70 65
-68 58z"/>
<path d="M7163 6943 c4 -6 30 -31 59 -55 29 -23 49 -38 45 -31 -4 6 -30 31
-59 55 -29 23 -49 38 -45 31z"/>
<path d="M6577 6874 c-3 -5 -8 -27 -12 -49 -4 -22 -12 -48 -17 -59 -8 -14 -3
-25 23 -52 18 -18 35 -31 38 -29 2 3 19 -9 37 -26 28 -27 31 -34 21 -50 -10
-16 -4 -26 43 -74 32 -33 56 -50 58 -42 4 21 -24 80 -52 106 -14 14 -26 29
-26 34 0 6 -23 38 -52 71 -29 34 -41 52 -28 41 62 -49 90 -81 90 -100 0 -12
10 -30 22 -41 21 -19 21 -19 14 6 -4 14 -10 35 -13 48 -3 12 -25 39 -49 59
-25 20 -42 38 -39 41 3 3 22 -10 41 -29 l37 -34 -7 35 c-4 24 -24 53 -65 94
-32 32 -61 54 -64 50z"/>
<path d="M6930 6873 c0 -20 713 -734 729 -731 8 2 16 9 18 15 6 17 -594 617
-600 601 -3 -8 -32 14 -76 57 -39 38 -71 64 -71 58z"/>
<path d="M6740 6847 c0 -26 66 -94 79 -82 8 8 -3 24 -34 55 -32 32 -45 39 -45
27z"/>
<path d="M7025 6820 c21 -22 41 -40 44 -40 3 0 -13 18 -34 40 -21 22 -41 40
-44 40 -3 0 13 -18 34 -40z"/>
<path d="M6280 6808 c41 -45 50 -53 50 -45 0 2 -21 23 -47 47 l-48 45 45 -47z"/>
<path d="M7555 6761 c40 -42 105 -95 92 -74 -4 6 -35 35 -69 64 -59 50 -61 50
-23 10z"/>
<path d="M5390 6635 l-105 -105 42 -41 41 -42 31 22 c51 37 90 37 137 3 35
-26 84 -101 84 -130 0 -5 68 -78 151 -163 84 -85 144 -142 134 -126 -28 43 -1
32 64 -28 33 -31 62 -51 65 -46 4 5 -88 105 -204 222 -115 117 -210 217 -210
221 0 18 17 4 124 -99 61 -60 131 -123 156 -142 25 -19 11 -2 -33 39 -56 52
-76 77 -72 90 3 9 -1 23 -10 30 -8 7 -15 17 -15 23 0 6 -29 41 -65 78 -58 59
-80 99 -57 99 4 0 28 -20 52 -45 48 -49 60 -54 60 -27 0 15 -246 272 -260 272
-3 0 -52 -47 -110 -105z"/>
<path d="M6865 6720 c10 -11 20 -20 23 -20 3 0 -3 9 -13 20 -10 11 -20 20 -23
20 -3 0 3 -9 13 -20z"/>
<path d="M6505 6721 c-7 -12 115 -141 133 -141 26 0 10 28 -51 88 -64 64 -72
69 -82 53z"/>
<path d="M6446 6642 c-6 -11 81 -89 89 -80 3 2 -15 24 -39 47 -25 24 -46 38
-50 33z"/>
<path d="M6413 6585 l-17 -36 32 -32 c25 -24 32 -28 32 -14 0 9 -4 17 -10 17
-5 0 -10 5 -10 12 0 6 8 4 19 -6 22 -20 43 -14 34 9 -4 11 -1 13 11 9 28 -11
17 10 -24 44 -21 17 -41 32 -44 32 -4 0 -14 -16 -23 -35z"/>
<path d="M6820 6567 c0 -2 19 -19 43 -37 l42 -33 -34 36 c-30 32 -51 46 -51
34z"/>
<path d="M6390 6521 c0 -23 14 -41 31 -41 24 0 24 12 1 33 -21 19 -32 22 -32
8z"/>
<path d="M6600 6512 c0 -4 16 -23 35 -42 27 -26 35 -30 35 -17 0 10 -11 29
-25 42 -24 25 -45 32 -45 17z"/>
<path d="M5170 6415 l-94 -94 99 -95 c99 -94 146 -124 68 -43 -45 46 -50 83
-5 42 31 -29 42 -24 42 17 0 20 -12 43 -35 71 -48 56 -46 82 3 34 21 -20 41
-37 44 -37 3 0 9 12 13 27 3 15 15 39 26 54 10 15 19 31 19 36 0 9 -72 83 -81
83 -2 0 -47 -43 -99 -95z"/>
<path d="M3418 6233 c-281 -282 -301 -308 -314 -407 l-7 -46 682 -680 c382
-381 686 -678 692 -674 7 4 -16 34 -54 73 -35 36 -66 71 -68 78 -2 6 -113 122
-246 258 -134 135 -243 250 -243 255 0 21 19 6 125 -100 66 -66 115 -108 124
-105 7 3 29 -12 50 -33 20 -21 28 -28 17 -16 -10 12 -16 28 -14 34 2 7 51 -34
109 -91 161 -160 209 -203 209 -188 0 8 -41 56 -92 108 -56 57 -87 96 -79 99
7 2 35 -18 62 -44 41 -40 51 -46 59 -34 12 18 12 31 1 48 -4 8 -204 210 -443
450 -450 452 -504 509 -496 518 3 3 213 -203 467 -458 253 -255 461 -457 461
-449 0 8 -56 71 -125 141 -69 69 -125 132 -125 140 0 8 37 -22 83 -68 45 -45
87 -82 92 -82 5 0 19 -10 32 -22 15 -14 22 -17 19 -8 -3 8 -14 46 -26 84 -17
57 -31 80 -76 128 -67 70 -64 92 3 27 32 -31 44 -38 41 -24 -53 215 -115 424
-129 441 -23 24 -27 53 -5 35 11 -9 14 3 19 65 4 60 13 92 39 143 l33 66 -300
303 c-165 166 -302 302 -305 302 -3 0 -126 -120 -272 -267z"/>
<path d="M6733 6465 c3 -11 13 -48 22 -82 12 -41 27 -71 47 -90 26 -23 29 -25
25 -8 -3 11 -13 48 -22 82 -12 41 -27 71 -47 90 -26 23 -29 25 -25 8z"/>
<path d="M6635 6430 c21 -22 41 -40 44 -40 3 0 -13 18 -34 40 -21 22 -41 40
-44 40 -3 0 13 -18 34 -40z"/>
<path d="M6615 6411 c22 -23 49 -47 60 -53 23 -12 18 -7 -50 53 l-50 43 40
-43z"/>
<path d="M5421 6413 c-31 -30 -64 -91 -75 -137 -6 -25 -1 -35 31 -69 l38 -40
-37 28 c-34 25 -38 25 -39 9 -4 -65 3 -80 69 -146 37 -38 71 -68 77 -68 6 0
31 -20 55 -45 24 -24 47 -42 52 -39 4 3 8 19 8 35 0 25 -15 45 -77 106 -70 67
-72 70 -18 25 33 -27 69 -59 79 -71 27 -30 40 -26 33 9 -4 16 -3 32 2 34 9 6
-2 87 -19 131 -6 17 -41 61 -78 100 -38 40 -48 52 -22 30 25 -23 55 -49 67
-59 l22 -18 -19 66 c-39 138 -88 177 -149 119z m155 -335 l29 -33 -32 29 c-31
28 -38 36 -30 36 2 0 16 -15 33 -32z"/>
<path d="M6458 6403 c-13 -28 -12 -29 155 -194 92 -91 167 -159 166 -150 -1
43 -33 86 -131 177 -59 54 -123 112 -143 128 -25 20 -35 35 -32 48 7 26 0 22
-15 -9z"/>
<path d="M6233 6413 c9 -14 87 -77 87 -70 0 3 -21 22 -47 43 -26 21 -44 33
-40 27z"/>
<path d="M6605 6364 c6 -5 28 -25 50 -44 l40 -35 -30 33 c-17 19 -39 38 -50
44 -11 6 -15 7 -10 2z"/>
<path d="M5880 6357 c0 -2 15 -16 33 -33 l32 -29 -29 33 c-28 30 -36 37 -36
29z"/>
<path d="M5895 6300 c21 -22 41 -40 44 -40 3 0 -13 18 -34 40 -21 22 -41 40
-44 40 -3 0 13 -18 34 -40z"/>
<path d="M6276 6299 c21 -25 41 -44 44 -42 2 2 -16 23 -40 46 l-44 42 40 -46z"/>
<path d="M6645 6290 c21 -22 41 -40 44 -40 3 0 -13 18 -34 40 -21 22 -41 40
-44 40 -3 0 13 -18 34 -40z"/>
<path d="M6880 6319 c0 -3 4 -19 9 -35 5 -16 12 -42 16 -58 4 -17 36 -60 77
-103 72 -74 89 -118 20 -50 -21 20 -41 37 -44 37 -15 0 -16 -34 -4 -73 8 -23
25 -84 37 -135 22 -93 23 -94 100 -175 l77 -82 99 98 98 97 -242 242 c-134
134 -243 240 -243 237z"/>
<path d="M6261 6274 c19 -22 36 -39 39 -37 2 2 -13 20 -35 41 l-39 37 35 -41z"/>
<path d="M5034 6279 l-21 -21 85 -86 c54 -56 86 -82 89 -73 4 9 25 -6 64 -45
33 -32 59 -54 59 -48 0 5 -20 30 -45 54 -31 31 -43 50 -39 62 4 13 -17 40 -77
98 -46 44 -85 80 -89 80 -3 0 -15 -9 -26 -21z"/>
<path d="M6420 6287 c0 -2 15 -16 33 -33 l32 -29 -29 33 c-28 30 -36 37 -36
29z"/>
<path d="M6789 6272 c13 -24 51 -58 51 -45 0 6 -9 22 -21 37 -23 30 -45 36
-30 8z"/>
<path d="M6710 6265 c7 -9 15 -13 17 -11 7 7 -7 26 -19 26 -6 0 -6 -6 2 -15z"/>
<path d="M5640 6256 c0 -20 319 -350 329 -341 2 3 -47 58 -110 123 -63 64
-138 144 -166 177 -38 44 -52 55 -53 41z"/>
<path d="M5859 6257 c16 -20 91 -81 91 -74 0 2 -24 24 -52 48 -29 24 -47 36
-39 26z"/>
<path d="M6410 6257 c0 -2 15 -16 33 -33 l32 -29 -29 33 c-28 30 -36 37 -36
29z"/>
<path d="M4837 6082 l-157 -157 247 -245 c136 -135 235 -231 220 -214 -29 32
-35 50 -14 38 6 -4 -6 12 -27 34 -49 51 -39 68 12 21 32 -30 33 -30 9 -3 -41
45 -33 64 10 23 21 -18 30 -25 20 -13 -26 31 -22 51 6 28 12 -10 2 3 -22 29
-53 56 -51 69 5 24 21 -17 -34 41 -124 131 -90 89 -160 166 -157 172 3 5 135
-118 293 -275 158 -156 289 -281 291 -279 3 3 -57 66 -132 142 -86 87 -137
145 -137 157 1 15 22 -2 83 -65 45 -47 72 -74 60 -60 -35 40 -28 59 9 24 17
-16 -46 49 -140 145 -158 160 -172 176 -172 209 l0 36 93 -93 c65 -66 93 -88
95 -76 3 11 52 -33 159 -141 86 -87 153 -148 149 -136 -6 17 -4 21 8 16 11 -4
19 3 26 21 6 16 9 32 8 36 -2 4 -126 132 -275 283 -150 152 -273 284 -273 293
0 11 65 -47 166 -150 91 -92 168 -167 170 -167 14 0 -28 46 -181 200 -93 94
-169 170 -169 170 -1 0 -72 -71 -159 -158z"/>
<path d="M6810 6176 c10 -35 23 -73 29 -83 11 -23 40 -48 46 -42 2 3 -5 35
-15 72 -16 60 -50 117 -70 117 -4 0 1 -29 10 -64z"/>
<path d="M6090 6145 c19 -19 36 -35 39 -35 3 0 -10 16 -29 35 -19 19 -36 35
-39 35 -3 0 10 -16 29 -35z"/>
<path d="M5670 6159 c0 -8 61 -75 135 -149 74 -74 135 -129 135 -122 0 7 -61
74 -135 149 -74 75 -135 130 -135 122z"/>
<path d="M6080 6115 c19 -19 36 -35 39 -35 3 0 -10 16 -29 35 -19 19 -36 35
-39 35 -3 0 10 -16 29 -35z"/>
<path d="M6450 6105 c19 -19 36 -35 39 -35 3 0 -10 16 -29 35 -19 19 -36 35
-39 35 -3 0 10 -16 29 -35z"/>
<path d="M4304 6076 c-38 -31 -76 -56 -84 -56 -8 0 7 -22 35 -50 56 -56 79
-65 69 -24 -6 23 -4 25 14 20 17 -6 24 2 47 48 29 59 30 109 4 114 -9 2 -47
-22 -85 -52z"/>
<path d="M6440 6075 c19 -19 36 -35 39 -35 3 0 -10 16 -29 35 -19 19 -36 35
-39 35 -3 0 10 -16 29 -35z"/>
<path d="M6065 6048 c22 -27 41 -48 43 -48 7 0 -36 56 -59 75 -12 11 -5 -1 16
-27z"/>
<path d="M5683 6041 c-2 -34 4 -44 56 -95 39 -39 61 -54 66 -46 8 13 75 -45
75 -65 0 -6 12 -22 28 -36 l27 -24 -22 26 c-13 14 -23 32 -23 40 0 8 -38 52
-85 99 -47 47 -85 90 -85 96 0 6 -8 18 -18 27 -17 15 -18 14 -19 -22z"/>
<path d="M5360 6058 c0 -9 12 -31 27 -50 15 -18 20 -27 10 -19 -15 12 -17 11
-17 -2 0 -9 4 -18 10 -22 5 -3 7 -12 4 -19 -8 -21 19 -65 64 -110 58 -56 76
-37 20 22 l-43 45 46 -36 c66 -53 72 -46 14 15 -47 49 -34 44 28 -11 18 -16
31 -21 37 -15 6 6 -27 46 -95 114 -62 62 -105 98 -105 88z"/>
<path d="M6041 6035 c10 -11 19 -28 20 -37 2 -9 167 -181 366 -381 l361 -365
31 32 c17 18 31 36 31 41 0 15 -720 725 -736 725 -8 0 -14 -2 -14 -4 0 -2 67
-71 149 -153 90 -90 147 -154 142 -161 -4 -7 -57 39 -141 123 -85 85 -137 130
-141 123 -9 -14 -39 7 -39 27 0 6 -10 20 -22 31 -23 19 -23 19 -7 -1z"/>
<path d="M6240 5977 c0 -2 15 -16 33 -33 l32 -29 -29 33 c-28 30 -36 37 -36
29z"/>
<path d="M5670 5941 c0 -15 17 -38 47 -67 26 -23 49 -41 51 -40 1 2 16 -10 33
-26 16 -17 33 -27 36 -24 4 4 -32 46 -80 94 -73 73 -87 83 -87 63z"/>
<path d="M5990 5934 c0 -5 45 -54 100 -109 55 -55 100 -106 100 -113 0 -7 38
-50 85 -94 58 -56 85 -89 85 -104 0 -17 48 -71 167 -189 l167 -166 39 39 39
40 -278 279 c-263 262 -391 383 -410 383 -4 0 -16 7 -26 17 -17 15 -18 15 -18
-2 0 -17 -3 -16 -25 5 -14 13 -25 19 -25 14z"/>
<path d="M4596 5841 l-69 -69 322 -321 c176 -176 321 -324 321 -329 0 -5 119
-130 265 -278 229 -233 263 -264 251 -229 -8 22 -24 78 -36 125 l-23 85 -188
191 c-104 104 -189 187 -189 184 0 -4 9 -15 20 -25 24 -22 29 -55 5 -35 -8 7
-15 9 -15 5 0 -5 -9 0 -20 10 -11 10 -20 14 -20 8 0 -5 9 -18 21 -29 51 -46
42 -82 -10 -38 -17 14 -35 23 -41 19 -5 -3 -10 1 -10 9 0 9 5 16 10 16 18 0
10 17 -30 63 -47 53 -54 84 -10 42 17 -16 30 -25 30 -20 0 5 14 -4 30 -20 17
-16 30 -25 30 -20 0 5 -41 51 -92 102 -51 51 -89 96 -85 99 4 4 24 -8 45 -27
20 -18 3 2 -39 46 -130 136 -76 110 66 -31 75 -74 141 -134 148 -134 6 0 -4
15 -24 33 -76 69 -342 347 -337 353 3 3 23 -9 44 -27 22 -18 -37 45 -131 139
-93 95 -170 172 -170 172 0 0 -31 -31 -69 -69z"/>
<path d="M4362 5877 c-15 -18 69 -103 92 -94 27 11 18 33 -28 71 -50 41 -50
41 -64 23z"/>
<path d="M5643 5874 c-4 -11 16 -38 63 -85 37 -37 70 -66 73 -64 2 3 -10 21
-29 39 -18 20 -30 41 -27 49 3 8 -8 28 -27 46 -36 35 -44 38 -53 15z"/>
<path d="M5090 5867 c0 -2 24 -23 53 -47 29 -25 41 -32 27 -16 -25 28 -80 71
-80 63z"/>
<path d="M5910 5856 c0 -2 54 -58 120 -124 110 -111 134 -142 112 -142 -5 0
-21 14 -37 30 -16 17 -34 30 -40 30 -6 0 -28 18 -50 40 -27 28 -42 37 -50 30
-9 -7 -26 6 -59 46 -32 39 -46 51 -46 37 0 -10 36 -54 80 -98 44 -44 80 -84
80 -90 0 -6 63 -73 140 -150 129 -129 158 -163 129 -153 -5 2 -113 107 -240
233 -126 127 -229 225 -229 218 0 -6 29 -40 65 -74 36 -35 64 -71 63 -80 -2
-9 79 -101 189 -215 188 -196 270 -291 259 -302 -3 -3 -146 135 -317 307 -205
205 -315 309 -322 302 -6 -6 99 -119 308 -328 303 -304 353 -358 343 -368 -2
-3 -119 110 -258 250 -140 140 -259 255 -264 255 -5 0 -18 8 -29 18 -10 9 87
-90 217 -221 215 -217 251 -257 229 -257 -4 0 -109 100 -232 223 -123 122
-214 209 -202 193 12 -16 143 -152 290 -302 l269 -271 121 121 c67 67 121 125
121 130 0 13 -473 486 -485 486 -6 0 -62 52 -125 115 -63 63 -123 115 -132
115 -10 0 -18 -2 -18 -4z"/>
<path d="M4312 5803 c-45 -97 -50 -214 -11 -264 14 -18 19 -20 19 -8 0 48 43
149 79 191 l40 45 -42 41 c-24 23 -47 42 -53 42 -6 0 -20 -21 -32 -47z"/>
<path d="M6075 5780 c27 -27 51 -50 54 -50 3 0 -17 23 -44 50 -27 28 -51 50
-54 50 -3 0 17 -22 44 -50z"/>
<path d="M6395 5813 c6 -6 30 -28 55 -49 30 -25 37 -29 20 -10 -14 15 -38 37
-55 49 -16 11 -25 16 -20 10z"/>
<path d="M5661 5739 c35 -39 65 -66 67 -59 4 12 -105 130 -121 130 -5 0 19
-32 54 -71z"/>
<path d="M5590 5715 c24 -25 49 -45 54 -45 6 0 -10 20 -34 45 -24 25 -49 45
-54 45 -6 0 10 -20 34 -45z"/>
<path d="M7034 5736 c19 -79 58 -122 97 -107 13 5 5 19 -44 71 -52 56 -59 61
-53 36z"/>
<path d="M3100 5718 c19 -77 40 -159 65 -253 15 -55 35 -129 44 -165 10 -36
39 -146 65 -245 l48 -180 400 -399 c287 -287 403 -395 410 -388 17 17 -30 78
-169 220 -108 110 -141 152 -115 152 9 0 234 -227 291 -293 22 -27 41 -42 41
-35 0 8 -31 45 -70 83 -43 43 -68 75 -65 85 3 10 -55 76 -161 184 -93 95 -163
174 -160 182 3 7 -2 18 -10 24 -8 7 -14 21 -14 31 0 13 82 -62 242 -220 134
-132 245 -237 247 -235 3 3 -53 63 -123 133 -71 71 -127 134 -124 141 2 7 58
-41 128 -111 69 -68 139 -136 155 -150 l31 -27 -1 23 c0 16 -49 73 -162 189
-163 166 -211 230 -109 142 46 -39 53 -42 49 -23 -3 15 21 -4 78 -63 45 -47
77 -77 70 -68 -7 10 -11 22 -9 29 2 6 36 -20 75 -58 55 -52 73 -64 77 -51 2 9
-1 21 -7 27 -6 6 -8 14 -4 18 4 4 25 -11 47 -32 22 -22 40 -35 40 -29 0 5 -25
34 -55 64 -34 34 -53 60 -50 70 3 10 -53 73 -165 185 -94 93 -170 176 -170
184 0 10 11 5 33 -15 38 -35 -214 222 -606 619 -157 158 -288 287 -290 287 -3
0 -1 -15 3 -32z"/>
<path d="M4496 5742 c-3 -5 70 -82 162 -173 92 -90 147 -143 122 -117 -52 57
-50 70 6 25 21 -17 -30 37 -115 121 -85 83 -158 152 -162 152 -4 0 -10 -4 -13
-8z"/>
<path d="M5480 5731 c0 -10 104 -101 116 -101 5 0 -16 25 -46 55 -52 53 -70
65 -70 46z"/>
<path d="M5279 5717 c16 -20 91 -81 91 -74 0 2 -24 24 -52 48 -29 24 -47 36
-39 26z"/>
<path d="M4445 5688 c-34 -40 -49 -74 -66 -151 l-12 -58 287 -288 c177 -177
286 -294 283 -302 -3 -8 40 -59 105 -125 61 -62 109 -117 107 -123 -5 -15
-229 204 -229 223 0 8 -4 17 -9 20 -14 9 -1 -32 15 -45 8 -6 14 -19 14 -28 -1
-12 -7 -9 -25 12 -14 15 -25 25 -25 20 0 -4 26 -31 57 -60 31 -29 54 -56 50
-59 -10 -10 -56 15 -94 50 -50 46 -39 16 12 -34 68 -67 54 -79 -19 -16 -60 53
-64 55 -79 38 -16 -18 -5 -31 213 -253 126 -129 230 -241 230 -249 0 -8 -97
82 -215 200 -118 118 -215 211 -215 207 0 -5 -14 3 -31 17 -17 14 -35 24 -39
21 -5 -3 54 -70 130 -148 123 -125 157 -167 134 -167 -4 0 -70 63 -146 141
-77 77 -142 138 -145 135 -3 -2 25 -33 61 -67 40 -37 66 -69 66 -82 0 -11 26
-48 60 -83 33 -34 60 -67 60 -73 0 -19 -30 3 -90 63 -30 31 -59 56 -65 56 -6
0 -39 29 -75 65 -35 35 -66 62 -69 60 -7 -8 458 -496 640 -672 l75 -72 143
143 143 144 -366 365 c-313 310 -367 368 -364 390 3 21 -39 68 -264 296 -149
149 -268 278 -268 288 0 11 68 -51 178 -162 97 -99 165 -166 150 -149 -41 45
-34 64 8 23 33 -31 35 -31 19 -6 -34 53 5 26 104 -75 56 -56 101 -97 101 -91
0 7 -4 14 -10 18 -5 3 -6 13 -3 21 4 10 -10 31 -37 59 -23 24 -40 49 -38 56 3
8 40 -21 96 -75 51 -49 92 -85 92 -80 0 5 -31 41 -70 79 -38 38 -70 76 -70 84
0 11 3 11 18 -2 24 -22 32 -21 32 1 0 9 -117 133 -259 275 l-258 259 -28 -34z"/>
<path d="M5650 5706 c0 -2 8 -10 18 -17 15 -13 16 -12 3 4 -13 16 -21 21 -21
13z"/>
<path d="M5850 5675 c13 -14 26 -25 28 -25 3 0 -5 11 -18 25 -13 14 -26 25
-28 25 -3 0 5 -11 18 -25z"/>
<path d="M6180 5667 c0 -2 30 -31 68 -63 37 -32 54 -43 37 -25 -31 34 -105 96
-105 88z"/>
<path d="M5310 5657 c0 -2 15 -16 33 -33 l32 -29 -29 33 c-28 30 -36 37 -36
29z"/>
<path d="M6560 5647 c0 -3 28 -29 63 -58 48 -41 54 -45 27 -15 -34 37 -90 82
-90 73z"/>
<path d="M5654 5599 c-6 -11 125 -153 134 -144 12 11 -14 69 -49 109 -40 45
-71 58 -85 35z"/>
<path d="M5613 5555 c-13 -19 -23 -37 -23 -41 0 -3 33 -38 73 -78 74 -71 63
-66 -26 12 -49 45 -72 47 -64 6 2 -13 1 -24 -2 -24 -6 0 -8 -11 -10 -55 -3
-84 39 -222 79 -256 16 -14 30 -29 30 -34 0 -5 -13 4 -30 20 -16 16 -30 23
-30 17 0 -7 9 -20 20 -29 11 -10 20 -21 20 -26 0 -5 -7 -4 -15 3 -35 29 -10
-7 47 -68 55 -59 56 -61 10 -17 -29 28 -52 43 -52 35 0 -42 34 -119 68 -155
20 -22 25 -29 10 -16 -16 14 -31 22 -34 19 -3 -4 9 -61 27 -128 33 -126 63
-180 99 -180 29 0 79 48 107 104 28 54 43 177 28 213 -5 10 -10 27 -11 38 -9
70 -25 102 -82 155 -32 30 -49 48 -38 40 12 -8 38 -30 59 -49 37 -35 49 -33
22 3 -8 10 -12 22 -10 26 5 7 -6 51 -54 229 -19 70 -24 79 -104 160 -47 47
-86 91 -88 98 -2 7 -14 -3 -26 -22z m47 -75 c0 -15 -5 -12 -26 11 -19 22 -19
22 4 10 12 -6 22 -16 22 -21z m75 -201 c30 -35 -53 32 -90 72 -27 29 -24 28
20 -8 28 -22 59 -51 70 -64z m-15 -25 c16 -18 7 -13 -26 14 -28 23 -57 49 -65
59 -21 26 62 -40 91 -73z m-10 -30 c27 -30 21 -26 -27 15 -35 29 -63 55 -63
58 0 9 56 -36 90 -73z m-25 -16 l60 -62 -60 53 c-53 48 -74 71 -63 71 2 0 30
-28 63 -62z m55 -109 c0 -14 -2 -12 -70 58 l-65 67 68 -58 c37 -32 67 -62 67
-67z m81 84 c13 -16 12 -17 -3 -4 -10 7 -18 15 -18 17 0 8 8 3 21 -13z m-186
-23 c10 -11 16 -20 13 -20 -3 0 -13 9 -23 20 -10 11 -16 20 -13 20 3 0 13 -9
23 -20z m240 -68 c-3 -3 -22 11 -43 33 l-37 38 43 -33 c24 -18 40 -35 37 -38z
m-10 -64 l50 -52 -50 43 c-27 24 -54 48 -59 53 -6 5 -6 8 0 8 5 0 32 -23 59
-52z m-20 -38 c38 -38 67 -70 64 -70 -2 0 -36 32 -74 70 -38 39 -67 70 -64 70
2 0 36 -31 74 -70z m20 -281 c16 -24 -15 -5 -50 33 l-40 42 42 -33 c24 -18 45
-37 48 -42z"/>
<path d="M5480 5515 c13 -14 26 -25 28 -25 3 0 -5 11 -18 25 -13 14 -26 25
-28 25 -3 0 5 -11 18 -25z"/>
<path d="M4311 5464 c0 -11 3 -14 6 -6 3 7 2 16 -1 19 -3 4 -6 -2 -5 -13z"/>
<path d="M5320 5476 c0 -2 8 -10 18 -17 15 -13 16 -12 3 4 -13 16 -21 21 -21
13z"/>
<path d="M6745 5461 c11 -13 43 -42 70 -64 44 -36 47 -37 20 -8 -37 40 -120
107 -90 72z"/>
<path d="M5110 5457 c0 -2 15 -16 33 -33 l32 -29 -29 33 c-28 30 -36 37 -36
29z"/>
<path d="M5325 5430 c10 -11 20 -20 23 -20 3 0 -3 9 -13 20 -10 11 -20 20 -23
20 -3 0 3 -9 13 -20z"/>
<path d="M5480 5431 c0 -6 4 -13 10 -16 6 -3 7 1 4 9 -7 18 -14 21 -14 7z"/>
<path d="M5310 5405 c13 -14 26 -25 28 -25 3 0 -5 11 -18 25 -13 14 -26 25
-28 25 -3 0 5 -11 18 -25z"/>
<path d="M5460 5408 c0 -20 27 -55 35 -46 4 4 -2 19 -14 34 -13 16 -21 21 -21
12z"/>
<path d="M5870 5397 c0 -29 515 -546 530 -531 7 7 -74 94 -260 281 -197 198
-270 266 -270 250z"/>
<path d="M4383 5395 c3 -11 20 -74 37 -140 68 -259 79 -288 117 -327 41 -42
48 -41 113 13 25 21 58 43 74 49 l29 11 -49 50 c-27 28 -48 57 -46 67 1 11
-51 69 -139 157 -77 77 -139 131 -136 120z"/>
<path d="M5300 5375 c13 -14 26 -25 28 -25 3 0 -5 11 -18 25 -13 14 -26 25
-28 25 -3 0 5 -11 18 -25z"/>
<path d="M4895 5361 c22 -25 95 -85 95 -78 0 2 -26 26 -57 53 -32 26 -49 38
-38 25z"/>
<path d="M5295 5340 c10 -11 20 -20 23 -20 3 0 -3 9 -13 20 -10 11 -20 20 -23
20 -3 0 3 -9 13 -20z"/>
<path d="M5460 5346 c0 -2 8 -10 18 -17 15 -13 16 -12 3 4 -13 16 -21 21 -21
13z"/>
<path d="M4890 5327 c0 -2 24 -23 53 -47 29 -25 41 -32 27 -16 -25 28 -80 71
-80 63z"/>
<path d="M5915 5240 c15 -62 47 -183 66 -250 8 -29 27 -59 56 -86 24 -23 43
-48 43 -55 0 -7 -15 1 -33 19 -18 18 -36 32 -40 32 -17 0 9 -68 36 -97 36 -38
29 -58 -8 -23 -14 13 -25 21 -25 19 0 -30 -26 -132 -42 -164 -42 -83 -117
-142 -170 -131 -53 10 -46 -20 18 -85 32 -32 63 -59 69 -59 5 0 116 106 245
235 l235 235 -232 232 -232 232 14 -54z"/>
<path d="M5320 5271 c0 -6 4 -13 10 -16 6 -3 7 1 4 9 -7 18 -14 21 -14 7z"/>
<path d="M5300 5253 c0 -5 12 -20 28 -34 l27 -24 -25 30 c-14 17 -26 32 -27
34 -2 2 -3 0 -3 -6z"/>
<path d="M5495 5240 c10 -11 20 -20 23 -20 3 0 -3 9 -13 20 -10 11 -20 20 -23
20 -3 0 3 -9 13 -20z"/>
<path d="M5420 5217 c0 -7 32 -44 70 -82 99 -98 91 -56 -9 48 -47 48 -61 57
-61 34z"/>
<path d="M5490 5205 c13 -14 26 -25 28 -25 3 0 -5 11 -18 25 -13 14 -26 25
-28 25 -3 0 5 -11 18 -25z"/>
<path d="M5270 5217 c0 -2 15 -16 33 -33 l32 -29 -29 33 c-28 30 -36 37 -36
29z"/>
<path d="M5095 5160 c10 -11 20 -20 23 -20 3 0 -3 9 -13 20 -10 11 -20 20 -23
20 -3 0 3 -9 13 -20z"/>
<path d="M5370 5126 c0 -9 118 -130 176 -181 62 -55 63 -55 54 -24 -11 38 -57
89 -74 83 -6 -2 -40 25 -76 61 -56 57 -80 75 -80 61z"/>
<path d="M5505 5080 c10 -11 20 -20 23 -20 3 0 -3 9 -13 20 -10 11 -20 20 -23
20 -3 0 3 -9 13 -20z"/>
<path d="M4740 5048 c41 -45 50 -53 50 -45 0 2 -21 23 -47 47 l-48 45 45 -47z"/>
<path d="M5130 5081 c0 -6 4 -13 10 -16 6 -3 7 1 4 9 -7 18 -14 21 -14 7z"/>
<path d="M5470 5077 c0 -2 15 -16 33 -33 l32 -29 -29 33 c-28 30 -36 37 -36
29z"/>
<path d="M5110 5063 c0 -5 10 -18 23 -29 l22 -19 -20 25 c-11 14 -21 27 -22
29 -2 2 -3 0 -3 -6z"/>
<path d="M4920 5035 c13 -14 26 -25 28 -25 3 0 -5 11 -18 25 -13 14 -26 25
-28 25 -3 0 5 -11 18 -25z"/>
<path d="M5090 5043 c0 -5 12 -20 28 -34 l27 -24 -25 30 c-14 17 -26 32 -27
34 -2 2 -3 0 -3 -6z"/>
<path d="M4915 5000 c10 -11 20 -20 23 -20 3 0 -3 9 -13 20 -10 11 -20 20 -23
20 -3 0 3 -9 13 -20z"/>
<path d="M5080 5004 c0 -6 14 -23 30 -39 29 -28 39 -55 21 -55 -5 0 -27 20
-49 44 l-41 45 2 -32 c1 -27 28 -58 156 -189 85 -87 151 -161 148 -165 -7 -7
-87 67 -227 210 -76 77 -119 107 -108 77 6 -18 691 -710 702 -710 6 0 44 33
84 73 l73 74 -293 293 c-161 161 -281 280 -265 264 45 -49 31 -59 -20 -14 -39
34 -49 39 -51 25 -2 -10 12 -34 32 -54 20 -20 36 -43 36 -51 0 -8 -52 37 -115
100 -63 63 -115 110 -115 104z"/>
<path d="M5259 4977 c16 -20 91 -81 91 -74 0 3 -24 25 -52 48 -29 24 -47 36
-39 26z"/>
<path d="M4727 4929 c-18 -10 -17 -13 9 -40 15 -16 31 -29 35 -29 12 0 18 43
8 62 -11 20 -26 22 -52 7z"/>
<path d="M4661 4876 l-31 -32 23 -22 c13 -12 28 -22 34 -22 6 0 16 -7 23 -15
10 -12 16 -13 26 -4 21 17 17 40 -13 73 l-28 31 32 -29 c39 -35 57 -27 22 10
-42 45 -53 46 -88 10z"/>
<path d="M4840 4870 c0 -16 2 -30 4 -30 2 0 11 -2 18 -5 9 -4 14 2 13 17 -1
50 -35 67 -35 18z"/>
<path d="M4470 4882 c0 -33 35 -84 103 -150 l74 -74 14 31 c8 17 20 31 26 31
24 0 13 26 -29 67 -33 31 -53 42 -87 46 -29 4 -53 15 -72 33 -16 15 -29 22
-29 16z m171 -165 l22 -32 -31 29 c-18 17 -32 34 -32 38 0 15 18 0 41 -35z"/>
<path d="M4155 4810 c10 -11 20 -20 23 -20 3 0 -3 9 -13 20 -10 11 -20 20 -23
20 -3 0 3 -9 13 -20z"/>
<path d="M4830 4815 c0 -8 4 -15 10 -15 5 0 7 7 4 15 -4 8 -8 15 -10 15 -2 0
-4 -7 -4 -15z"/>
<path d="M5440 4796 c27 -30 100 -91 100 -83 0 3 -28 29 -62 58 -35 29 -52 41
-38 25z"/>
<path d="M3353 4774 c8 -28 85 -110 326 -350 173 -172 317 -312 319 -309 2 2
-64 73 -147 157 -83 84 -149 158 -147 165 5 12 -341 373 -356 373 -3 0 -1 -16
5 -36z"/>
<path d="M5070 4787 c0 -3 18 -20 40 -37 22 -17 40 -29 40 -27 0 3 -18 20 -40
37 -22 17 -40 29 -40 27z"/>
<path d="M4510 4742 c0 -23 90 -122 111 -122 22 0 5 30 -51 85 -52 51 -60 56
-60 37z"/>
<path d="M4140 4697 c0 -2 15 -16 33 -33 l32 -29 -29 33 c-28 30 -36 37 -36
29z"/>
<path d="M3384 4665 c2 -11 10 -40 16 -65 11 -39 39 -71 240 -272 126 -126
232 -228 236 -228 4 0 -16 24 -45 54 -28 30 -51 62 -51 71 0 20 95 -64 189
-166 42 -47 67 -67 74 -60 6 6 -104 123 -327 348 -186 186 -335 329 -332 318z"/>
<path d="M4345 4660 c10 -11 20 -20 23 -20 3 0 -3 9 -13 20 -10 11 -20 20 -23
20 -3 0 3 -9 13 -20z"/>
<path d="M4535 4650 c7 -33 49 -90 67 -90 23 0 4 50 -33 85 l-41 40 7 -35z"/>
<path d="M3749 4647 c8 -10 37 -37 65 -60 28 -23 45 -34 37 -24 -8 10 -37 37
-65 60 -28 23 -45 34 -37 24z"/>
<path d="M4710 4636 c0 -2 8 -10 18 -17 15 -13 16 -12 3 4 -13 16 -21 21 -21
13z"/>
<path d="M5630 4606 c34 -37 90 -82 90 -73 0 3 -28 29 -62 58 -49 41 -55 45
-28 15z"/>
<path d="M5239 4617 c8 -10 37 -37 65 -60 28 -23 45 -34 37 -24 -8 10 -37 37
-65 60 -28 23 -45 34 -37 24z"/>
<path d="M4568 4546 c18 -36 34 -40 25 -6 -3 11 -14 25 -24 31 -18 9 -18 9 -1
-25z"/>
<path d="M4720 4495 c13 -14 26 -25 28 -25 3 0 -5 11 -18 25 -13 14 -26 25
-28 25 -3 0 5 -11 18 -25z"/>
<path d="M4350 4485 c13 -14 26 -25 28 -25 3 0 -5 11 -18 25 -13 14 -26 25
-28 25 -3 0 5 -11 18 -25z"/>
<path d="M4666 4501 c-6 -9 25 -46 97 -120 69 -69 104 -110 99 -118 -5 -9 -38
18 -102 82 -52 52 -97 95 -100 95 -3 0 -4 -16 -2 -36 4 -30 22 -54 108 -141
72 -73 104 -112 104 -128 0 -15 17 -38 49 -67 79 -71 204 -208 197 -215 -4 -4
-101 87 -216 202 -116 116 -210 206 -210 201 0 -4 86 -95 190 -202 105 -106
190 -198 190 -204 0 -15 -11 -12 -34 8 -12 9 24 -27 79 -80 l100 -97 78 77
c42 42 77 80 77 85 0 12 -465 482 -504 510 -23 16 -31 18 -34 8 -3 -8 -35 19
-81 70 -56 59 -80 79 -85 70z"/>
<path d="M3435 4470 c21 -110 20 -108 186 -273 87 -87 156 -151 153 -143 -12
30 12 15 90 -59 133 -126 113 -83 -30 62 -85 87 -132 143 -130 153 3 9 -45 65
-135 155 -131 131 -140 138 -134 105z"/>
<path d="M4581 4474 c0 -11 3 -14 6 -6 3 7 2 16 -1 19 -3 4 -6 -2 -5 -13z"/>
<path d="M4320 4476 c0 -2 8 -10 18 -17 15 -13 16 -12 3 4 -13 16 -21 21 -21
13z"/>
<path d="M3182 4444 c-12 -8 -22 -20 -22 -27 0 -14 110 -127 124 -127 6 0 5 5
-2 12 -24 24 -12 31 13 8 28 -27 30 -20 14 49 -20 90 -71 124 -127 85z"/>
<path d="M4130 4456 c0 -2 8 -10 18 -17 15 -13 16 -12 3 4 -13 16 -21 21 -21
13z"/>
<path d="M4500 4448 c0 -8 7 -21 15 -28 19 -16 19 -1 0 24 -12 16 -15 17 -15
4z"/>
<path d="M5425 4431 c33 -36 113 -103 102 -85 -4 7 -35 36 -69 65 -37 31 -51
39 -33 20z"/>
<path d="M3089 4348 l-36 -40 176 -176 c97 -98 177 -174 179 -170 2 3 -4 33
-13 65 -9 32 -21 78 -27 103 -8 38 -26 61 -116 153 -59 59 -111 107 -117 106
-5 0 -26 -19 -46 -41z"/>
<path d="M3800 4355 c13 -14 26 -25 28 -25 3 0 -5 11 -18 25 -13 14 -26 25
-28 25 -3 0 5 -11 18 -25z"/>
<path d="M4427 4374 c-8 -8 67 -104 123 -159 32 -32 40 -35 39 -20 0 11 -8 33
-17 49 -21 35 -136 138 -145 130z"/>
<path d="M4341 4323 c7 -12 15 -20 18 -17 3 2 -3 12 -13 22 -17 16 -18 16 -5
-5z"/>
<path d="M4535 4320 c10 -11 20 -20 23 -20 3 0 -3 9 -13 20 -10 11 -20 20 -23
20 -3 0 3 -9 13 -20z"/>
<path d="M4375 4321 c-3 -6 3 -14 12 -20 33 -17 235 -240 228 -252 -4 -6 -27
12 -57 45 -27 31 -54 56 -59 56 -24 0 -2 -33 71 -106 44 -45 80 -78 80 -75 0
4 -9 37 -19 75 -18 65 -25 74 -118 168 -104 105 -128 124 -138 109z"/>
<path d="M3486 4272 c16 -64 41 -95 188 -242 108 -107 156 -149 156 -135 0 16
5 14 34 -14 19 -18 36 -29 39 -24 3 5 -91 107 -209 226 -157 159 -213 209
-208 189z"/>
<path d="M4705 4280 c10 -11 20 -20 23 -20 3 0 -3 9 -13 20 -10 11 -20 20 -23
20 -3 0 3 -9 13 -20z"/>
<path d="M3010 4265 l-24 -25 213 -210 c117 -116 215 -210 217 -210 20 0 -15
44 -116 145 -67 66 -126 128 -131 138 -27 48 11 20 121 -88 66 -66 120 -115
120 -109 0 5 -85 94 -188 197 l-188 188 -24 -26z"/>
<path d="M5610 4246 c33 -36 90 -82 90 -73 0 2 -28 28 -62 57 -47 40 -54 44
-28 16z"/>
<path d="M4290 4237 c0 -5 29 -39 65 -76 59 -62 78 -91 58 -91 -5 0 -25 19
-46 42 -26 29 -40 39 -44 30 -4 -10 -17 -2 -45 25 -22 21 -39 33 -37 26 7 -21
479 -496 479 -482 0 28 -49 192 -61 203 -9 8 -9 6 0 -11 6 -13 8 -23 4 -23 -4
0 -90 83 -190 183 -101 101 -183 179 -183 174z"/>
<path d="M2892 4157 c-34 -34 -62 -66 -62 -72 0 -13 112 -125 125 -125 6 0 87
-76 180 -170 93 -93 174 -170 178 -170 5 0 7 11 3 24 -7 28 2 40 21 24 7 -6
16 -8 20 -5 7 8 -54 75 -209 230 -59 60 -108 116 -108 125 0 10 45 -28 112
-93 62 -61 107 -103 100 -95 -6 7 -12 21 -12 29 0 9 32 -17 73 -57 40 -39 75
-72 79 -72 3 0 8 12 11 26 4 23 -21 52 -211 245 -118 121 -220 219 -226 219
-6 -1 -39 -29 -74 -63z"/>
<path d="M3970 4186 c0 -2 8 -10 18 -17 15 -13 16 -12 3 4 -13 16 -21 21 -21
13z"/>
<path d="M4730 4165 c13 -14 26 -25 28 -25 3 0 -5 11 -18 25 -13 14 -26 25
-28 25 -3 0 5 -11 18 -25z"/>
<path d="M3775 4150 c10 -11 20 -20 23 -20 3 0 -3 9 -13 20 -10 11 -20 20 -23
20 -3 0 3 -9 13 -20z"/>
<path d="M4735 4120 c10 -11 20 -20 23 -20 3 0 -3 9 -13 20 -10 11 -20 20 -23
20 -3 0 3 -9 13 -20z"/>
<path d="M3530 4106 c0 -18 50 -77 155 -181 73 -72 110 -103 107 -89 -4 20
-262 287 -262 270z"/>
<path d="M4160 4103 c0 -4 105 -113 233 -243 128 -129 270 -273 316 -320 46
-47 81 -78 78 -70 -2 8 -15 57 -28 108 -13 50 -28 92 -34 92 -6 0 -31 20 -55
45 -29 30 -47 42 -54 35 -7 -7 -26 5 -58 37 -26 26 -48 42 -48 37 0 -6 27 -37
61 -69 39 -37 58 -63 54 -72 -4 -11 -71 51 -226 206 -200 201 -239 236 -239
214z"/>
<path d="M3440 4097 c0 -5 8 -22 17 -40 9 -18 16 -44 14 -59 -1 -14 2 -29 8
-32 6 -4 8 -12 5 -20 -3 -7 -1 -31 5 -54 5 -24 5 -42 0 -42 -18 0 -8 -21 25
-58 39 -42 58 -40 24 3 -13 16 -17 26 -10 21 17 -10 15 19 -4 69 -16 41 -31
98 -39 150 -4 25 -45 82 -45 62z"/>
<path d="M4505 4060 c10 -11 20 -20 23 -20 3 0 -3 9 -13 20 -10 11 -20 20 -23
20 -3 0 3 -9 13 -20z"/>
<path d="M4745 4055 c7 -28 130 -501 141 -536 8 -28 52 -69 74 -69 21 0 230
193 230 211 0 5 -73 82 -162 171 -90 89 -150 148 -134 130 16 -17 26 -35 22
-39 -3 -4 -45 31 -92 78 -76 75 -84 81 -79 54z"/>
<path d="M2632 3897 l-154 -153 132 -130 c72 -71 138 -129 145 -129 8 0 17 -4
22 -9 5 -5 2 -6 -7 -1 -8 5 -4 -4 9 -18 14 -15 27 -27 29 -27 3 0 -3 9 -13 20
-29 32 -4 23 34 -12 19 -18 -4 9 -52 60 -48 51 -87 98 -87 104 0 6 -14 26 -31
45 -16 19 -28 38 -24 41 3 3 61 -49 128 -116 67 -67 126 -122 131 -122 5 0 2
8 -5 18 -13 15 -12 16 3 3 10 -7 16 -17 13 -21 -6 -11 72 -83 83 -76 5 3 15
-1 22 -9 7 -8 17 -15 22 -15 6 0 -40 50 -101 110 -61 61 -111 117 -111 126 0
13 5 12 28 -4 15 -11 43 -36 61 -56 19 -20 41 -36 49 -36 7 0 -19 36 -58 80
-118 130 -74 111 68 -30 l133 -131 19 23 c21 26 25 20 -109 159 -37 39 -61 72
-56 78 4 7 1 19 -6 27 -6 8 -9 17 -5 21 4 4 33 -20 66 -52 46 -45 60 -55 60
-40 0 15 17 2 68 -48 l68 -67 34 35 34 35 -234 235 c-129 129 -239 235 -245
235 -5 0 -79 -69 -163 -153z m343 -497 c10 -11 16 -20 13 -20 -3 0 -13 9 -23
20 -10 11 -16 20 -13 20 3 0 13 -9 23 -20z"/>
<path d="M4555 4020 c10 -11 20 -20 23 -20 3 0 -3 9 -13 20 -10 11 -20 20 -23
20 -3 0 3 -9 13 -20z"/>
<path d="M4850 4036 c0 -2 8 -10 18 -17 15 -13 16 -12 3 4 -13 16 -21 21 -21
13z"/>
<path d="M4071 4023 c4 -12 772 -794 776 -789 1 1 -8 42 -21 90 l-24 89 -156
154 c-103 102 -156 148 -156 136 0 -10 36 -54 80 -98 47 -47 80 -88 80 -100 0
-14 -55 35 -189 169 -120 120 -190 183 -194 175 -3 -9 -39 21 -102 86 -53 55
-96 95 -94 88z"/>
<path d="M4910 3985 c13 -14 26 -25 28 -25 3 0 -5 11 -18 25 -13 14 -26 25
-28 25 -3 0 5 -11 18 -25z"/>
<path d="M3580 3986 c0 -2 8 -10 18 -17 15 -13 16 -12 3 4 -13 16 -21 21 -21
13z"/>
<path d="M4150 3986 c0 -2 8 -10 18 -17 15 -13 16 -12 3 4 -13 16 -21 21 -21
13z"/>
<path d="M3971 3953 c7 -12 15 -20 18 -17 3 2 -3 12 -13 22 -17 16 -18 16 -5
-5z"/>
<path d="M4013 3959 c-6 -6 95 -115 274 -297 155 -158 283 -290 283 -294 0
-21 -27 2 -151 128 -74 74 -143 140 -154 146 -20 11 -20 11 0 -13 10 -13 51
-57 89 -96 96 -100 62 -92 -41 8 -46 45 -85 80 -88 77 -2 -2 -47 38 -99 89
-51 51 -102 93 -112 93 -11 0 3 -19 44 -58 34 -31 62 -65 62 -73 0 -9 32 -46
71 -83 52 -48 69 -71 65 -83 -5 -13 -42 19 -163 146 -87 89 -166 167 -178 173
-20 11 211 -232 272 -286 30 -26 44 -56 26 -56 -4 0 -86 78 -182 173 -95 94
-172 167 -170 160 2 -6 145 -154 317 -328 171 -174 312 -323 312 -332 0 -9 -2
-14 -4 -12 -3 2 -133 132 -290 288 -157 156 -286 278 -286 270 0 -9 9 -25 21
-37 11 -12 19 -30 17 -40 -1 -11 153 -173 447 -470 248 -249 452 -461 454
-470 3 -15 -465 437 -496 479 -7 10 -68 66 -136 127 -148 132 -437 420 -437
435 0 6 -7 1 -15 -11 -16 -21 -8 -30 295 -334 270 -272 340 -350 300 -336 -5
2 -90 83 -189 181 -107 108 -181 173 -183 165 -3 -8 -61 44 -148 131 -78 78
-141 139 -139 133 2 -5 238 -247 524 -536 286 -290 522 -531 523 -537 2 -5 -1
-9 -6 -9 -6 0 -248 238 -538 530 -290 291 -530 527 -533 524 -3 -2 127 -137
289 -300 176 -175 295 -302 295 -313 0 -11 180 -201 450 -474 247 -251 451
-455 452 -453 1 1 -61 238 -138 527 -78 288 -143 534 -146 545 -3 12 -135 151
-295 310 -211 210 -292 284 -298 274 -6 -10 -33 13 -102 84 -110 115 -151 149
-165 135z"/>
<path d="M3580 3943 c0 -4 45 -53 100 -108 55 -55 100 -96 100 -91 0 4 -45 53
-100 108 -55 55 -100 96 -100 91z"/>
<path d="M4490 3886 c0 -2 8 -10 18 -17 15 -13 16 -12 3 4 -13 16 -21 21 -21
13z"/>
<path d="M3477 3784 c-17 -17 -3 -44 53 -99 65 -65 83 -66 23 -1 l-38 39 34
-23 c29 -20 32 -21 23 -4 -16 30 -87 95 -95 88z"/>
<path d="M4130 3776 c0 -2 8 -10 18 -17 15 -13 16 -12 3 4 -13 16 -21 21 -21
13z"/>
<path d="M2408 3668 l-56 -61 237 -237 237 -236 17 22 c9 13 17 26 17 30 0 3
-54 60 -120 126 -66 65 -120 126 -120 135 0 13 5 12 27 -8 15 -13 -23 27 -85
90 -107 109 -124 131 -102 131 5 0 99 -89 209 -197 198 -198 267 -263 242
-231 -7 9 -10 21 -7 26 3 5 -4 18 -15 28 -19 17 -20 17 -13 -2 6 -16 4 -16
-19 5 -31 28 -35 46 -9 37 9 -3 -21 31 -68 76 -47 46 -138 138 -201 205 l-116
123 -55 -62z m407 -318 c10 -11 16 -20 13 -20 -3 0 -13 9 -23 20 -10 11 -16
20 -13 20 3 0 13 -9 23 -20z"/>
<path d="M3450 3699 c-12 -28 -11 -32 21 -67 l34 -37 -36 33 c-43 40 -60 30
-22 -12 l28 -31 -27 24 c-25 22 -58 24 -58 3 0 -4 18 -26 40 -47 22 -21 40
-44 40 -49 0 -6 -20 9 -44 33 -29 29 -50 42 -60 38 -22 -9 -20 -20 9 -47 14
-13 25 -20 25 -15 0 4 9 0 21 -11 15 -13 36 -19 70 -19 27 0 49 2 49 4 0 3 -8
14 -17 25 -10 12 12 -10 49 -49 37 -38 65 -73 62 -77 -3 -4 5 -33 16 -65 11
-32 22 -75 25 -95 4 -39 28 -92 44 -102 10 -6 -11 83 -24 105 -5 6 -9 26 -11
43 -1 17 -11 49 -20 71 -10 22 -17 47 -15 57 1 9 -3 19 -9 23 -6 3 -7 11 -4
17 3 5 -8 25 -26 43 -27 28 -31 37 -21 49 7 8 9 21 5 27 -4 8 -3 9 4 5 7 -4
12 -3 12 2 0 9 -133 152 -142 152 -3 0 -11 -14 -18 -31z m10 -123 c22 -27 -5
-17 -31 10 -21 24 -22 26 -3 16 11 -6 26 -18 34 -26z m110 -49 c0 -6 15 -27
33 -46 l32 -34 -33 23 c-19 12 -36 30 -39 39 -3 9 -18 29 -32 45 l-26 29 33
-22 c17 -12 32 -27 32 -34z"/>
<path d="M3020 3615 c19 -19 36 -35 39 -35 3 0 -10 16 -29 35 -19 19 -36 35
-39 35 -3 0 10 -16 29 -35z"/>
<path d="M2196 3459 c-53 -51 -102 -101 -108 -112 -8 -16 -2 -28 43 -73 54
-55 69 -64 69 -41 0 20 40 89 69 120 60 65 121 74 176 26 49 -43 62 -72 96
-208 47 -185 97 -226 181 -144 l38 37 -98 103 c-53 57 -158 167 -233 244
l-136 141 -97 -93z"/>
<path d="M3300 3525 c-7 -8 -10 -21 -7 -29 4 -11 1 -13 -10 -9 -12 5 -15 2
-10 -10 4 -11 2 -14 -9 -10 -19 7 -18 -6 4 -31 17 -21 17 -21 -6 -2 -12 11
-25 16 -29 12 -4 -4 6 -18 22 -31 17 -13 26 -24 21 -25 -6 0 -20 10 -33 22
-13 12 -26 18 -29 15 -4 -4 13 -25 37 -47 24 -23 35 -37 24 -31 -11 5 -31 21
-44 35 -28 30 -43 32 -62 10 -11 -13 -6 -22 33 -61 l45 -45 46 48 c37 40 43
52 34 64 -10 13 -10 13 4 3 23 -19 32 -3 12 21 -18 21 -18 21 5 2 12 -11 25
-16 29 -12 4 3 -9 20 -28 36 -19 16 -30 29 -25 30 6 0 23 -12 38 -27 22 -21
31 -24 40 -15 9 9 2 22 -32 57 -49 50 -52 51 -70 30z"/>
<path d="M2440 3477 c0 -2 15 -16 33 -33 l32 -29 -29 33 c-28 30 -36 37 -36
29z"/>
<path d="M3010 3456 c0 -2 8 -10 18 -17 15 -13 16 -12 3 4 -13 16 -21 21 -21
13z"/>
<path d="M2430 3447 c0 -2 15 -16 33 -33 l32 -29 -29 33 c-28 30 -36 37 -36
29z"/>
<path d="M3743 3414 c20 -22 37 -44 37 -49 0 -6 54 -64 120 -130 109 -108 145
-157 106 -142 -8 3 -17 1 -19 -6 -2 -7 -54 37 -116 97 -113 111 -123 115 -99
36 10 -30 51 -79 165 -197 139 -142 171 -181 144 -171 -6 2 -71 63 -145 137
-75 73 -136 128 -136 122 0 -42 86 -135 646 -697 l619 -622 59 -13 c40 -9 63
-10 75 -2 24 15 24 78 -2 171 l-23 83 -259 262 c-143 144 -271 270 -285 281
-14 10 -8 2 13 -18 47 -47 49 -68 1 -27 -20 18 -190 186 -378 374 -189 188
-375 373 -414 410 -40 37 -72 72 -72 76 0 5 -17 21 -37 36 l-38 28 38 -39z"/>
<path d="M3473 3419 c-8 -8 1 -21 28 -46 22 -20 42 -33 46 -29 3 3 12 1 20 -5
23 -20 14 -1 -18 36 -17 19 -36 35 -42 35 -6 0 2 -15 19 -32 l29 -33 -32 29
c-18 16 -30 33 -27 37 7 13 -12 19 -23 8z"/>
<path d="M2882 3346 c49 -47 72 -64 85 -59 14 5 8 14 -32 50 -26 24 -50 41
-53 39 -2 -3 -19 4 -36 15 -17 12 -1 -9 36 -45z m43 -16 c21 -22 37 -40 34
-40 -3 0 -23 18 -44 40 -21 22 -37 40 -34 40 3 0 23 -18 44 -40z"/>
<path d="M2354 3350 c-34 -13 -84 -81 -100 -139 l-16 -54 203 -203 c112 -112
207 -204 211 -204 21 0 2 30 -54 90 -62 63 -30 39 65 -50 78 -74 53 -26 -30
56 -84 83 -54 64 39 -25 49 -46 59 -52 72 -41 9 7 16 18 16 24 0 21 -105 116
-128 116 -35 0 -99 65 -117 120 -9 27 -26 61 -38 77 -16 21 -17 24 -3 14 17
-14 17 -12 10 25 -25 134 -78 213 -130 194z m136 -386 l45 -48 -40 31 c-22 17
-60 53 -85 79 l-45 48 40 -31 c22 -17 60 -53 85 -79z m41 -1 c13 -16 12 -17
-3 -4 -10 7 -18 15 -18 17 0 8 8 3 21 -13z"/>
<path d="M3142 3352 c6 -17 89 -85 95 -79 3 4 -14 25 -38 46 -41 38 -65 51
-57 33z"/>
<path d="M3112 3327 c-9 -10 -1 -24 33 -57 25 -24 48 -41 52 -37 4 4 -10 21
-31 38 -20 17 -34 34 -31 37 3 3 21 -10 40 -28 19 -18 38 -31 41 -27 7 6 -74
86 -87 87 -4 0 -11 -6 -17 -13z"/>
<path d="M3570 3295 c13 -14 26 -23 28 -20 7 7 -29 45 -41 45 -6 0 0 -11 13
-25z"/>
<path d="M2037 3292 c-16 -17 -12 -22 56 -90 40 -40 76 -72 80 -72 4 0 7 13 7
29 0 22 -14 45 -56 90 -31 34 -59 61 -64 61 -4 0 -14 -8 -23 -18z"/>
<path d="M3080 3298 c0 -6 10 -23 23 -37 l22 -26 -27 24 c-16 14 -31 21 -35
18 -8 -8 66 -87 81 -87 6 0 5 5 -2 12 -7 7 -12 19 -12 27 0 12 3 11 18 -2 10
-10 22 -14 26 -10 7 7 -72 93 -86 93 -4 0 -8 -5 -8 -12z"/>
<path d="M2645 3270 c10 -11 20 -20 23 -20 3 0 -3 9 -13 20 -10 11 -20 20 -23
20 -3 0 3 -9 13 -20z"/>
<path d="M2610 3267 c0 -2 15 -16 33 -33 l32 -29 -29 33 c-28 30 -36 37 -36
29z"/>
<path d="M2820 3266 c0 -2 8 -10 18 -17 15 -13 16 -12 3 4 -13 16 -21 21 -21
13z"/>
<path d="M3564 3248 c10 -15 15 -32 12 -37 -4 -5 -2 -12 3 -15 10 -6 11 -76 1
-76 -3 0 -11 5 -18 12 -9 9 -12 8 -12 -8 0 -22 105 -132 116 -121 4 3 2 19 -4
34 -7 15 -16 51 -22 78 -14 66 -33 105 -66 135 l-27 25 17 -27z"/>
<path d="M1960 3215 l-34 -35 139 -140 c76 -77 141 -138 142 -136 2 2 -1 23
-7 47 -7 24 -15 63 -19 86 -5 25 -21 56 -41 80 -35 39 -135 133 -142 133 -2 0
-19 -16 -38 -35z"/>
<path d="M3010 3235 c-11 -14 -7 -23 30 -60 46 -47 60 -54 60 -31 0 8 6 16 13
19 14 5 -60 87 -79 87 -6 0 -17 -7 -24 -15z"/>
<path d="M3020 3154 c25 -26 36 -42 25 -36 -11 6 -31 22 -44 36 -24 25 -51 35
-51 18 0 -12 34 -42 47 -42 5 0 18 -9 28 -20 17 -19 19 -19 36 -4 18 16 17 18
-24 55 -59 53 -70 49 -17 -7z"/>
<path d="M1902 3158 c-19 -19 -16 -23 43 -74 64 -54 86 -52 33 4 -19 20 -42
47 -50 59 -11 17 -17 20 -26 11z"/>
<path d="M2912 3134 c-28 -19 -28 -31 1 -63 l22 -26 -27 24 c-24 21 -29 22
-42 8 -13 -13 -12 -17 9 -37 14 -13 23 -26 20 -28 -3 -3 -16 5 -30 18 -43 41
-41 11 2 -32 35 -35 44 -40 57 -29 9 7 13 17 10 22 -3 5 -2 9 3 8 22 -4 24 3
7 22 -19 21 -19 21 9 8 24 -11 30 -10 44 4 16 15 14 19 -25 55 -23 22 -42 43
-42 48 0 4 20 -11 44 -35 24 -24 46 -38 50 -33 5 8 -73 82 -86 82 -2 0 -14 -7
-26 -16z m-17 -75 c11 -17 -1 -21 -15 -4 -8 9 -8 15 -2 15 6 0 14 -5 17 -11z"/>
<path d="M3271 3083 c84 -87 60 -98 -27 -12 -35 35 -64 60 -64 56 0 -4 142
-150 315 -325 l314 -317 -15 60 c-51 208 -40 187 -149 296 -71 71 -101 95
-103 84 -3 -15 -7 -14 -28 6 -18 16 -24 19 -24 8 0 -8 5 -20 12 -27 9 -9 9
-15 1 -23 -8 -8 -46 24 -144 125 -72 75 -137 136 -142 136 -6 0 19 -30 54 -67z"/>
<path d="M3430 3143 c0 -5 20 -29 45 -53 25 -25 43 -51 40 -58 -5 -13 194
-227 203 -218 16 16 -34 82 -152 201 -75 75 -136 132 -136 128z"/>
<path d="M2239 3120 c-3 -61 4 -77 64 -139 l62 -64 -57 48 c-32 26 -58 44 -58
39 1 -5 13 -55 29 -112 20 -74 37 -112 57 -135 23 -25 24 -27 5 -12 -24 20
-24 20 -17 0 10 -27 16 -51 26 -107 15 -82 48 -128 92 -128 15 0 28 5 28 10 0
6 -26 36 -57 66 -32 30 -49 51 -38 45 11 -5 38 -28 60 -50 21 -23 46 -41 54
-41 8 0 -16 30 -54 66 -39 36 -61 60 -50 53 11 -7 41 -33 67 -58 45 -42 49
-44 73 -31 14 8 24 19 21 26 -3 7 3 14 12 16 12 3 -10 30 -80 100 -54 52 -98
99 -98 104 0 5 45 -36 99 -90 72 -72 104 -97 116 -92 9 3 15 11 13 16 -2 6
-57 65 -123 132 -66 67 -102 107 -80 90 22 -16 58 -49 80 -71 21 -23 44 -41
50 -41 6 0 29 -18 50 -40 43 -44 56 -48 70 -22 8 14 -25 52 -202 232 -181 183
-213 211 -214 190z m236 -501 c48 -50 48 -51 10 -22 -22 17 -58 50 -80 74 -34
36 -36 39 -10 21 17 -11 53 -44 80 -73z"/>
<path d="M3704 3114 c8 -26 32 -115 47 -174 7 -25 18 -53 25 -64 7 -10 10 -24
7 -31 -2 -8 16 -91 41 -185 25 -95 46 -188 46 -208 0 -25 8 -44 27 -64 24 -25
51 -39 39 -20 -2 4 -18 59 -34 122 -62 237 -84 316 -95 335 -6 11 -10 25 -9
32 6 28 -59 238 -79 258 l-21 20 6 -21z"/>
<path d="M1847 3102 c-16 -17 -12 -22 58 -92 41 -41 75 -70 75 -65 0 5 68 -58
151 -140 108 -108 145 -139 130 -112 -12 21 -16 35 -9 31 7 -4 -27 35 -77 86
-178 183 -303 310 -307 310 -3 0 -12 -8 -21 -18z"/>
<path d="M4130 3075 c13 -14 26 -25 28 -25 3 0 -5 11 -18 25 -13 14 -26 25
-28 25 -3 0 5 -11 18 -25z"/>
<path d="M1606 2870 l-198 -199 184 -183 c101 -101 203 -198 226 -216 39 -32
42 -32 42 -12 0 17 4 20 23 15 15 -5 0 15 -47 63 -63 65 -79 100 -38 85 9 -3
54 -40 98 -82 45 -42 119 -109 165 -150 79 -70 80 -71 29 -17 -30 32 -85 85
-123 117 -37 32 -68 62 -69 66 0 5 -43 53 -95 108 -94 99 -122 135 -105 135 4
0 51 -43 104 -96 l96 -95 7 32 7 32 147 -144 146 -144 -130 135 c-71 74 -208
214 -304 311 -95 97 -172 182 -170 188 2 6 89 -73 194 -176 104 -102 191 -181
193 -174 2 6 50 -30 105 -81 l102 -92 -100 103 c-149 154 -102 142 58 -15 132
-129 131 -125 -2 16 -39 41 -71 83 -71 94 0 17 9 12 48 -25 26 -25 64 -58 84
-74 21 -15 36 -31 33 -35 -3 -5 -1 -11 4 -14 18 -12 5 22 -23 54 -17 21 -23
35 -16 40 6 4 -40 58 -112 131 -215 218 -261 269 -254 276 3 4 112 -98 241
-227 192 -191 236 -231 248 -222 12 10 18 7 31 -13 9 -14 21 -25 26 -25 11 0
6 6 -66 87 -32 36 -44 58 -40 69 6 15 12 12 43 -17 l37 -34 -26 32 c-15 18
-30 43 -34 55 -6 20 -346 375 -458 478 l-43 39 -197 -199z m728 -462 c-3 -5
-14 -2 -25 8 -10 9 -16 21 -13 26 3 5 14 2 25 -8 10 -9 16 -21 13 -26z"/>
<path d="M3565 3050 c10 -11 20 -20 23 -20 3 0 -3 9 -13 20 -10 11 -20 20 -23
20 -3 0 3 -9 13 -20z"/>
<path d="M3130 2985 c30 -33 153 -159 273 -280 131 -133 215 -225 212 -234 -3
-7 20 -39 52 -72 62 -64 80 -89 64 -89 -5 0 -138 128 -296 285 -169 170 -290
283 -297 279 -6 -4 -8 -3 -5 3 4 6 -1 18 -11 26 -16 15 -18 15 -19 -4 -1 -13
38 -60 117 -139 84 -85 118 -125 113 -136 -4 -11 51 -73 193 -215 182 -182
200 -197 215 -183 26 23 58 105 65 167 l7 56 -49 48 c-37 36 -39 38 -10 6 22
-23 37 -46 33 -49 -8 -9 -78 57 -297 277 -91 92 -180 174 -198 183 -18 10 -36
24 -39 32 -5 13 -7 13 -14 3 -6 -10 -14 -8 -33 11 -24 21 -26 22 -26 5 0 -15
-12 -8 -52 30 l-52 50 54 -60z"/>
<path d="M2746 2973 l-59 -55 44 -44 c47 -48 60 -52 79 -29 10 13 9 19 -6 37
l-19 21 26 -17 c25 -16 27 -16 42 7 14 22 13 24 -24 55 -22 18 -39 38 -39 45
0 6 19 -8 43 -31 23 -23 46 -42 50 -42 19 0 3 30 -35 67 l-43 42 -59 -56z"/>
<path d="M3833 2975 c4 -11 20 -72 36 -135 88 -344 150 -562 167 -587 8 -14
13 -31 10 -39 -6 -16 23 -80 58 -127 27 -37 65 -57 146 -78 36 -9 137 -36 225
-59 292 -78 530 -139 532 -136 4 3 -1077 1089 -1136 1142 -32 29 -42 34 -38
19z"/>
<path d="M2090 2976 c0 -2 8 -10 18 -17 15 -13 16 -12 3 4 -13 16 -21 21 -21
13z"/>
<path d="M4310 2895 c13 -14 26 -25 28 -25 3 0 -5 11 -18 25 -13 14 -26 25
-28 25 -3 0 5 -11 18 -25z"/>
<path d="M2948 2882 c-3 -20 3 -38 19 -58 35 -45 29 -72 -9 -37 -12 11 -18 12
-18 3 0 -7 -7 -10 -17 -5 -18 6 -7 -7 76 -97 35 -37 37 -64 4 -37 -29 23 -57
35 -78 34 -11 0 -37 17 -58 39 -21 21 -40 36 -43 33 -3 -2 40 -54 96 -115 55
-61 100 -114 100 -119 0 -4 72 -80 161 -168 150 -150 197 -203 170 -194 -6 2
-131 124 -279 272 -147 147 -272 267 -277 267 -5 0 30 -40 79 -89 59 -60 87
-94 84 -107 -2 -14 -27 6 -106 86 -79 81 -105 101 -114 92 -9 -9 -9 -15 1 -24
12 -11 13 -10 7 6 -4 13 8 6 37 -20 28 -25 41 -45 39 -57 -4 -14 -7 -15 -18
-6 -17 14 -18 8 -1 -23 16 -32 617 -638 631 -638 6 0 67 56 136 125 l124 124
-371 371 c-350 350 -371 369 -375 342z"/>
<path d="M3380 2875 c13 -14 26 -25 28 -25 3 0 -5 11 -18 25 -13 14 -26 25
-28 25 -3 0 5 -11 18 -25z"/>
<path d="M3160 2737 c0 -2 15 -16 33 -33 l32 -29 -29 33 c-28 30 -36 37 -36
29z"/>
<path d="M3555 2700 c21 -22 41 -40 44 -40 3 0 -13 18 -34 40 -21 22 -41 40
-44 40 -3 0 13 -18 34 -40z"/>
<path d="M4490 2715 c13 -14 26 -25 28 -25 3 0 -5 11 -18 25 -13 14 -26 25
-28 25 -3 0 5 -11 18 -25z"/>
<path d="M3370 2695 c13 -14 26 -25 28 -25 3 0 -5 11 -18 25 -13 14 -26 25
-28 25 -3 0 5 -11 18 -25z"/>
<path d="M1357 2613 c-14 -17 -9 -27 74 -138 49 -66 93 -129 98 -140 9 -20
218 -228 256 -256 18 -13 19 -13 6 4 -33 42 11 10 89 -65 48 -46 35 -32 -28
29 -63 62 -118 110 -123 107 -6 -3 -16 0 -24 6 -18 15 -20 44 -2 34 8 -6 8 -3
-1 9 -8 9 -12 23 -10 32 2 12 32 -11 101 -77 171 -165 104 -90 -125 139 -122
122 -219 225 -215 229 4 4 19 -3 35 -17 15 -13 -4 9 -43 49 -38 39 -70 72 -71
72 0 0 -8 -8 -17 -17z m403 -488 c13 -14 21 -25 18 -25 -2 0 -15 11 -28 25
-13 14 -21 25 -18 25 2 0 15 -11 28 -25z"/>
<path d="M2827 2448 c481 -488 562 -568 572 -568 26 0 4 29 -104 135 -63 63
-115 111 -115 107 0 -3 -112 105 -248 241 -137 136 -252 247 -257 247 -5 0 64
-73 152 -162z"/>
<path d="M1470 2567 c0 -2 15 -16 33 -33 l32 -29 -29 33 c-28 30 -36 37 -36
29z"/>
<path d="M3370 2525 c19 -19 36 -35 39 -35 3 0 -10 16 -29 35 -19 19 -36 35
-39 35 -3 0 10 -16 29 -35z"/>
<path d="M3530 2537 c0 -2 15 -16 33 -33 l32 -29 -29 33 c-28 30 -36 37 -36
29z"/>
<path d="M2578 2515 c5 -11 47 -55 91 -98 45 -43 91 -97 102 -120 12 -24 100
-122 200 -224 163 -165 195 -203 171 -203 -5 0 -83 76 -175 169 -92 92 -167
163 -167 157 0 -7 20 -32 45 -56 26 -25 40 -47 34 -50 -11 -7 339 -370 357
-370 12 0 134 124 134 136 0 12 -443 454 -455 454 -5 0 -57 46 -114 103 -93
91 -98 94 -43 31 34 -39 68 -77 77 -84 8 -7 15 -19 15 -27 0 -17 -35 11 -150
121 -69 66 -68 57 4 -21 55 -60 5 -34 -66 35 -39 37 -66 58 -60 47z"/>
<path d="M1355 2500 c10 -11 20 -20 23 -20 3 0 -3 9 -13 20 -10 11 -20 20 -23
20 -3 0 3 -9 13 -20z"/>
<path d="M1278 2447 c-8 -40 8 -148 35 -247 14 -52 47 -169 72 -260 25 -91 63
-235 85 -320 48 -184 52 -194 84 -215 22 -15 27 -15 53 -1 15 8 75 62 132 121
l104 106 -43 44 c-55 56 -45 59 14 5 41 -38 44 -39 60 -21 16 17 14 20 -27 58
-24 22 -41 45 -40 50 2 6 24 -10 48 -35 43 -46 43 -47 64 -27 l22 19 -43 43
c-42 43 -67 52 -32 11 18 -21 18 -22 0 -8 -10 8 -21 22 -25 32 -3 9 -49 61
-101 116 -126 131 -418 492 -437 540 -8 19 -20 14 -25 -11z m362 -462 c107
-107 190 -195 185 -195 -6 0 -98 88 -205 195 -107 107 -190 195 -185 195 6 0
98 -88 205 -195z m-139 178 c13 -16 12 -17 -3 -4 -10 7 -18 15 -18 17 0 8 8 3
21 -13z m4 -133 c10 -11 16 -20 13 -20 -3 0 -13 9 -23 20 -10 11 -16 20 -13
20 3 0 13 -9 23 -20z m248 -257 c17 -18 27 -33 23 -33 -16 0 -196 184 -196
199 0 9 32 -17 71 -59 39 -41 84 -90 102 -107z m-71 -137 c-5 -19 -5 -19 -13
0 -4 10 -42 57 -86 104 -118 130 -119 136 -2 20 78 -78 104 -110 101 -124z
m-7 144 c10 -11 16 -20 13 -20 -3 0 -13 9 -23 20 -10 11 -16 20 -13 20 3 0 13
-9 23 -20z m60 -140 c10 -11 14 -20 8 -20 -5 0 -18 9 -28 20 -10 11 -14 20 -8
20 5 0 18 -9 28 -20z m-72 -30 c3 -11 2 -18 -3 -15 -4 3 -10 14 -13 25 -3 11
-2 18 3 15 4 -3 10 -14 13 -25z"/>
<path d="M2436 2427 c3 -10 9 -15 12 -12 3 3 0 11 -7 18 -10 9 -11 8 -5 -6z"/>
<path d="M2479 2418 c7 -10 11 -24 8 -33 -4 -8 -2 -17 3 -20 14 -9 12 -25 -2
-25 -6 0 -20 8 -30 17 -18 16 -18 16 -12 -2 6 -15 4 -17 -12 -11 -12 4 -5 -8
19 -31 l37 -38 37 38 c19 21 32 41 27 45 -5 4 -27 23 -49 42 -21 19 -33 27
-26 18z"/>
<path d="M1675 2360 c10 -11 20 -20 23 -20 3 0 -3 9 -13 20 -10 11 -20 20 -23
20 -3 0 3 -9 13 -20z"/>
<path d="M3550 2345 c19 -19 36 -35 39 -35 3 0 -10 16 -29 35 -19 19 -36 35
-39 35 -3 0 10 -16 29 -35z"/>
<path d="M2655 2290 c36 -38 21 -40 -18 -2 l-28 27 -68 -73 c-38 -40 -64 -75
-60 -78 5 -3 9 -10 9 -16 0 -7 -6 -6 -15 2 -23 19 -18 -4 5 -25 11 -10 20 -23
20 -28 0 -6 -13 2 -30 18 -29 28 -54 31 -28 4 24 -25 60 -79 52 -79 -5 0 -25
16 -46 37 -31 30 -40 34 -53 23 -22 -19 -19 -30 23 -74 37 -40 20 -33 -30 13
-50 44 -30 7 23 -44 94 -91 148 -163 161 -213 7 -29 26 -63 52 -91 31 -34 34
-40 12 -23 -16 12 -31 21 -32 19 -2 -2 7 -41 20 -86 35 -119 66 -146 127 -109
l32 19 -44 46 -44 47 44 -37 c25 -20 48 -37 52 -37 3 0 17 24 30 53 18 41 23
70 24 137 0 47 -4 98 -8 114 -4 16 -36 59 -70 95 -55 58 -56 61 -13 21 28 -24
51 -40 53 -34 1 5 -13 65 -33 134 -19 69 -39 140 -44 159 -8 33 -74 111 -94
111 -5 0 3 -13 19 -30z m10 -240 l20 -23 -20 11 c-11 6 -47 39 -80 73 l-60 63
60 -51 c33 -28 69 -61 80 -73z m-45 -37 l75 -76 -77 68 c-65 57 -90 85 -75 85
1 0 36 -35 77 -77z m-35 -5 c46 -48 46 -49 9 -17 -35 29 -70 69 -61 69 1 0 25
-23 52 -52z"/>
<path d="M1920 2232 c0 -8 46 -53 90 -87 14 -11 0 6 -30 38 -57 59 -60 62 -60
49z"/>
<path d="M1945 2140 c49 -49 92 -90 95 -90 2 0 -36 41 -85 90 -49 50 -92 90
-95 90 -2 0 36 -40 85 -90z"/>
<path d="M2295 2170 c21 -22 41 -40 44 -40 3 0 -13 18 -34 40 -21 22 -41 40
-44 40 -3 0 13 -18 34 -40z"/>
<path d="M3687 2199 c7 -7 15 -10 18 -7 3 3 -2 9 -12 12 -14 6 -15 5 -6 -5z"/>
<path d="M2320 2176 c0 -2 8 -10 18 -17 15 -13 16 -12 3 4 -13 16 -21 21 -21
13z"/>
<path d="M2160 2077 c0 -2 15 -16 33 -33 l32 -29 -29 33 c-28 30 -36 37 -36
29z"/>
<path d="M2845 2030 c4 -25 13 -61 20 -80 7 -19 16 -54 20 -78 5 -31 20 -57
57 -98 56 -61 59 -82 5 -35 -19 17 -36 31 -38 31 -2 0 -5 -28 -7 -63 -7 -161
-92 -287 -193 -287 -54 0 -112 58 -133 132 -49 165 -49 166 -110 226 -33 31
-54 49 -47 39 18 -23 7 -34 -16 -16 -10 7 1 -7 25 -32 38 -41 53 -69 35 -69
-4 0 -28 21 -54 46 l-47 46 -22 -22 -22 -22 28 -31 c16 -18 55 -60 88 -93 32
-34 56 -67 52 -72 -4 -6 59 -77 138 -159 l145 -148 220 220 c122 121 221 224
221 230 0 6 -84 93 -186 195 l-186 185 7 -45z"/>
<path d="M2310 2010 c-8 -14 -7 -26 1 -42 12 -22 11 -22 -8 -5 -25 22 -30 22
-44 -4 -9 -18 -6 -26 27 -60 40 -41 53 -46 72 -27 9 9 6 19 -16 42 l-27 29 32
-21 c45 -31 52 -27 17 11 -54 58 -59 73 -8 25 41 -40 56 -48 87 -48 23 0 36 4
32 10 -4 6 -10 8 -14 6 -4 -3 -32 19 -61 49 -59 60 -74 65 -90 35z"/>
<path d="M2095 1970 c21 -22 41 -40 44 -40 3 0 -13 18 -34 40 -21 22 -41 40
-44 40 -3 0 13 -18 34 -40z"/>
<path d="M2025 1907 c21 -26 40 -45 43 -42 4 3 -14 25 -38 48 l-43 42 38 -48z"/>
<path d="M2189 1894 c-16 -20 -6 -37 45 -78 l37 -30 26 27 27 27 -29 30 c-28
30 -49 34 -25 5 21 -25 -5 -17 -30 10 -28 29 -33 30 -51 9z"/>
<path d="M2014 1848 c-4 -7 -4 -10 1 -6 4 4 15 2 24 -5 14 -11 14 -10 2 6 -16
20 -18 21 -27 5z"/>
<path d="M2112 1813 l-53 -46 23 -24 c13 -14 36 -34 51 -45 l28 -20 25 23 c13
12 24 27 24 33 0 6 -17 28 -37 50 l-38 40 43 -38 c57 -49 67 -38 16 16 l-39
42 43 -38 c24 -21 46 -35 49 -32 8 7 -4 22 -45 54 l-38 30 -52 -45z"/>
<path d="M2040 1726 c0 -2 8 -10 18 -17 15 -13 16 -12 3 4 -13 16 -21 21 -21
13z"/>
<path d="M2231 1661 l-23 -18 73 -60 c69 -55 248 -190 294 -222 11 -7 -54 61
-145 152 -91 92 -167 166 -170 166 -3 0 -16 -8 -29 -18z"/>
<path d="M2405 1610 c10 -11 20 -20 23 -20 3 0 -3 9 -13 20 -10 11 -20 20 -23
20 -3 0 3 -9 13 -20z"/>
<path d="M2395 1580 c10 -11 20 -20 23 -20 3 0 -3 9 -13 20 -10 11 -20 20 -23
20 -3 0 3 -9 13 -20z"/>
<path d="M2099 1534 c-18 -19 -20 -27 -11 -36 20 -20 14 -33 -6 -14 -18 15
-20 15 -35 -2 -13 -15 -14 -21 -4 -32 10 -12 9 -12 -4 -2 -13 10 -41 -14 -176
-151 -186 -189 -198 -209 -198 -347 0 -73 8 -115 58 -293 31 -114 65 -223 74
-242 18 -37 47 -51 85 -41 34 8 712 691 705 709 -4 10 0 13 11 10 16 -4 92 62
81 70 -2 2 -65 44 -139 92 -74 49 -199 137 -276 196 l-142 107 -23 -24z m136
-84 c10 -11 16 -20 13 -20 -3 0 -13 9 -23 20 -10 11 -16 20 -13 20 3 0 13 -9
23 -20z m-14 -27 c13 -16 12 -17 -3 -4 -17 13 -22 21 -14 21 2 0 10 -8 17 -17z
m190 -150 c13 -16 12 -17 -3 -4 -17 13 -22 21 -14 21 2 0 10 -8 17 -17z m-200
-50 c13 -16 12 -17 -3 -4 -17 13 -22 21 -14 21 2 0 10 -8 17 -17z"/>
<path d="M2570 1405 c19 -19 36 -35 39 -35 3 0 -10 16 -29 35 -19 19 -36 35
-39 35 -3 0 10 -16 29 -35z"/>
<path d="M2680 1245 c13 -14 26 -25 28 -25 3 0 -5 11 -18 25 -13 14 -26 25
-28 25 -3 0 5 -11 18 -25z"/>
</g>
</svg>
